<svg width="40" height="40" viewBox="0 0 40 40" fill="none" xmlns="http://www.w3.org/2000/svg">
<path d="M21.4127 35.0589L21.8833 34.8824C22.1186 34.8236 22.3539 34.9412 22.4127 35.1765C22.4716 35.4118 22.3539 35.6471 22.1186 35.7059L21.648 35.8824H21.5304C21.3539 35.8824 21.1775 35.7647 21.1186 35.5883C21.0598 35.4118 21.1775 35.1177 21.4127 35.0589Z" fill="#5D9D9F"/>
<path d="M27.8244 8.70583C28.4127 8.70583 29.0597 8.76465 29.7068 8.82348C30.8833 8.8823 33.1185 9.1176 34.295 9.41171C34.4715 9.47054 34.648 9.47054 34.7656 9.52936C35.2362 9.64701 35.648 9.76465 36.1185 9.94112C36.7656 10.1764 37.1185 10.3529 37.2362 10.9999C37.295 11.0588 37.3538 11.1764 37.3538 11.2941C37.4127 17.0588 37.295 23.5294 37.1185 29.8823C37.1185 30.1764 37.0597 30.4117 36.8833 30.647C36.7068 31.1176 36.4127 31.5294 36.0009 31.9411C35.3538 32.4705 34.1185 33.2352 33.3538 33.5882C29.648 35.2352 26.1185 36.8235 22.4127 38.4705C21.8244 38.7058 21.2362 38.9999 20.5891 39.0588C19.9421 39.1176 19.2362 38.9411 18.8244 38.4705C18.5891 38.1764 18.4715 37.7647 18.3538 37.3529C18.1774 36.8235 18.1774 36.2352 18.1774 35.7647V30.7647C17.5303 30.8235 16.648 30.647 15.9421 30.647C14.1185 30.647 12.295 30.4705 10.5303 30.1764C9.35384 29.9999 8.11854 29.647 7.41266 28.647C6.88325 27.8823 6.88325 26.9411 6.88325 25.9999C6.88325 25.4705 6.88325 24.9411 6.88325 24.4117C6.70678 24.2352 6.58913 24.0588 6.35384 23.9999C5.64795 23.7058 5.0009 23.8823 4.41266 23.5294C4.17737 23.5294 3.94207 23.4705 3.70678 23.3529C2.88325 22.9411 2.7656 21.8823 2.70678 21.3529C2.64795 20.7647 2.58913 20.1764 2.64796 19.5882C2.7656 18.8235 3.11855 18.2352 3.64796 17.8823C4.17737 17.5294 4.82442 17.4705 5.41266 17.4117C5.94207 17.4117 6.47149 17.3529 7.0009 17.3529C7.05972 16.4117 7.17737 15.4705 7.29502 14.5294C7.41266 13.647 7.58913 12.7647 7.88325 11.9999C8.05972 10.9999 8.41266 9.99995 9.17737 9.35289C9.35384 9.17642 9.64796 9.05877 9.94207 8.94112C9.58913 7.41171 9.11854 5.94112 8.53031 4.58818C8.47149 4.47054 8.47148 4.29407 8.58913 4.17642C8.64795 4.05877 8.7656 3.99995 8.94207 3.94112C11.0009 3.76465 13.0597 3.64701 15.1185 3.58818C14.9421 2.94113 14.7068 2.23524 14.4715 1.58818C14.4127 1.47054 14.4127 1.29407 14.5303 1.17642C14.5891 1.05877 14.7656 0.999949 14.8832 0.999949C19.0009 0.882302 23.1185 0.941125 27.2362 1.29407C27.3538 1.29407 27.4715 1.35289 27.5303 1.47054C27.5891 1.58818 27.7068 1.64701 27.648 1.76465C27.3538 4.05877 27.3538 6.41171 27.8244 8.70583ZM35.8244 10.7647C35.4127 10.5882 35.0009 10.5294 34.5891 10.4117C34.4127 10.3529 34.2362 10.3529 34.1185 10.2941C33.0009 9.99995 30.8244 9.76465 29.7068 9.70583C29.1185 9.64701 28.5303 9.64701 28.0597 9.58818C28.2362 10.3529 28.4715 11.1176 28.7068 11.8235V11.8823C29.8244 11.8823 30.9421 11.9411 32.0597 11.9411C33.4715 11.647 34.8833 11.2941 36.295 10.9411C36.1774 10.8823 36.0597 10.8235 35.8244 10.7647ZM20.295 11.7058C21.648 11.7058 23.0597 11.7647 24.4127 11.7647C24.3538 10.5882 24.0597 9.70583 23.4715 9.1176C22.9421 8.52936 21.8244 8.1176 21.1185 8.58818C20.7068 8.8823 20.3538 9.35289 20.295 9.99995C20.2362 10.5882 20.2362 11.1764 20.295 11.7058ZM20.2362 12.5882C16.4715 12.5294 12.5303 12.4117 8.7656 12.4117V12.5294C8.23619 16.0588 8.11854 19.647 8.11854 23.2352V25.4705C8.11854 26.2941 8.11854 27.1764 8.58913 27.8235C9.11854 28.5882 10.2362 28.8823 11.2362 28.9999C13.5891 29.3529 15.8832 29.4117 18.2362 29.1176V27.9999C18.2362 28.2352 18.0597 28.4117 17.8244 28.4117L17.0009 28.4705H16.9421C16.7068 28.4705 16.5303 28.2941 16.5303 28.0588C16.5303 27.8235 16.7068 27.5882 16.9421 27.5882L17.7656 27.5294C18.0009 27.5294 18.1774 27.647 18.2362 27.8823V21.1764C18.2362 19.7058 18.2362 17.647 19.4127 16.1176C20.4715 14.7058 22.2362 14.1764 24.1185 13.7058C25.5303 13.3529 26.9421 13.0588 28.3538 12.7058C25.648 12.7058 22.9421 12.647 20.2362 12.5882ZM14.7068 10.4705C14.3538 10.2352 13.8244 10.2352 13.4127 10.4705C13.0597 10.7058 12.8832 11.1764 12.9421 11.5882C13.7068 11.5882 14.4127 11.5882 15.1774 11.647C15.2362 11.1764 15.0597 10.7058 14.7068 10.4705ZM30.648 13.1764C28.5891 13.647 26.4127 14.1176 24.3538 14.647C22.648 15.0588 21.0597 15.5294 20.1774 16.7058C19.295 17.8823 19.1774 19.4117 19.1774 21.1764L19.1185 35.7647C19.1185 36.2352 19.1185 36.7058 19.2362 37.0588C19.3538 37.4705 19.5891 37.7647 19.8832 37.8235C20.295 37.9999 20.8244 37.7647 21.3538 37.5294C23.8833 36.2941 26.4127 35.1176 28.9421 33.8823C31.2362 32.8235 33.4715 31.7058 35.7656 30.647C36.0597 30.5294 36.2362 30.2352 36.295 29.8823C36.4127 23.7058 36.5303 17.4705 36.4715 11.8235C34.5303 12.2941 32.5303 12.7058 30.648 13.1764ZM5.53031 18.3529C5.0009 18.4117 4.53031 18.4117 4.17737 18.647C3.88325 18.8823 3.64796 19.2941 3.53031 19.7647C3.47149 20.2352 3.53031 20.7647 3.58913 21.3529C3.64795 21.8823 3.7656 22.4117 4.11855 22.647C4.29501 22.7647 4.53031 22.7647 4.82442 22.7647L6.88325 22.8235C6.88325 21.3529 6.94207 19.8235 7.0009 18.3529C6.53031 18.2941 6.05972 18.2941 5.53031 18.3529ZM9.0009 11.5294C9.53031 11.5294 10.0597 11.5294 10.5303 11.5294C10.4127 10.9411 10.3538 10.3529 10.1774 9.76465C10.0009 9.82348 9.88325 9.94112 9.82443 9.99995C9.41266 10.3529 9.11854 10.9411 9.0009 11.5294ZM9.64796 4.76465C10.1774 6.1176 10.5891 7.58818 10.9421 9.05877C11.1185 9.8823 11.295 10.7058 11.4127 11.5294C11.5891 11.5294 11.8244 11.5294 12.0009 11.5294C11.9421 10.8235 12.295 10.0588 12.8833 9.70583C13.5303 9.23524 14.4715 9.29407 15.1774 9.76465C15.7656 10.1764 16.1185 10.9411 16.0009 11.647C16.1185 11.647 16.2362 11.647 16.3538 11.647C16.3538 9.70583 16.1185 7.82348 15.7656 5.99995L12.3538 6.17642C12.3538 6.35289 12.295 6.47054 12.295 6.58818C12.1774 6.94112 11.8832 7.17642 11.5303 7.29407H11.4715C11.2362 7.29407 11.0597 7.1176 11.0597 6.94112C11.0009 6.70583 11.1774 6.47054 11.4127 6.41171C11.4715 6.41171 11.4715 6.35289 11.4715 6.35289C11.5303 6.17642 11.5303 6.05877 11.5303 6.05877C11.4715 5.94112 11.4127 5.76465 11.4715 5.64701C11.5303 5.41171 11.648 5.29407 11.8244 5.29407L15.5891 5.1176C15.5303 4.8823 15.4715 4.70583 15.4127 4.47054C13.5303 4.47054 11.5891 4.58818 9.64796 4.76465ZM15.5303 1.8823C16.648 4.99995 17.2362 8.29407 17.295 11.647C18.0009 11.647 18.7068 11.647 19.4127 11.7058C19.3538 11.1176 19.295 10.5294 19.4127 9.8823C19.5891 8.99995 20.0009 8.23524 20.648 7.82348C21.8244 7.1176 23.3538 7.58818 24.1185 8.52936C24.8244 9.29407 25.1774 10.4117 25.295 11.8235C26.1185 11.8235 26.8833 11.8235 27.7068 11.8823C27.4127 11.0588 27.1774 10.1764 27.0009 9.29407C27.0009 9.29407 27.0009 9.29407 27.0009 9.23524C26.5303 6.8823 26.4127 4.47054 26.7068 2.1176C23.0009 1.8823 19.2362 1.76465 15.5303 1.8823Z" fill="#5D9D9F"/>
<path d="M6.64784 20.7647C6.5302 21.2942 5.94196 21.5883 5.41255 21.4706C4.88314 21.353 4.58902 20.7647 4.70667 20.2353C5.00078 19 7.00078 19.4706 6.64784 20.7647Z" fill="#5D9D9F"/>
<path d="M22.0603 27.7058C21.4755 27.7058 21.0015 27.0738 21.0015 26.2941C21.0015 25.5144 21.4755 24.8823 22.0603 24.8823C22.6451 24.8823 23.1191 25.5144 23.1191 26.2941C23.1191 27.0738 22.6451 27.7058 22.0603 27.7058Z" fill="#5D9D9F"/>
<path d="M25.9428 4.35293C25.5311 4.47058 25.0605 4.35293 24.7664 4.05881C24.5899 3.88234 24.5311 3.70587 24.4723 3.47058H18.8252C18.8252 3.58823 18.8252 3.7647 18.7664 3.88234C18.7076 4.11764 18.4723 4.29411 18.237 4.41175C18.1193 4.47058 17.9428 4.5294 17.8252 4.5294C17.7076 4.5294 17.5899 4.5294 17.4723 4.47058C17.237 4.41175 17.1193 4.11764 17.237 3.88234C17.2958 3.64705 17.5899 3.5294 17.8252 3.64705H17.884L17.9428 3.58823V3.5294L17.884 3.47058C17.7076 3.41175 17.5899 3.17646 17.5899 2.99999C17.6487 2.7647 17.8252 2.64705 18.0017 2.64705H24.884C25.0017 2.64705 25.1781 2.70587 25.237 2.82352C25.2958 2.94117 25.3546 3.11764 25.2958 3.23528C25.237 3.29411 25.2958 3.41175 25.3546 3.47058C25.4134 3.5294 25.5899 3.58823 25.7076 3.5294C25.9428 3.47058 26.1781 3.58823 26.237 3.82352C26.2958 4.05881 26.1781 4.29411 25.9428 4.35293Z" fill="#5D9D9F"/>
<path d="M34.8826 30.2353L33.412 30.8824C33.3532 30.8824 33.2944 30.9412 33.2356 30.9412C33.0591 30.9412 32.8826 30.8236 32.8238 30.7059C32.7061 30.4706 32.8238 30.2353 33.0591 30.1177L34.5297 29.4118C34.765 29.2942 35.0003 29.4118 35.1179 29.6471C35.2356 29.8824 35.1179 30.1177 34.8826 30.2353Z" fill="#5D9D9F"/>
<path d="M28.5298 32.9412H28.471C28.2945 32.9412 28.0592 32.8236 28.0592 32.5883C28.0004 32.353 28.1769 32.1177 28.4122 32.0589C29.1769 31.8824 29.8828 31.5295 30.471 31.0589C30.6475 30.8824 30.9416 30.9412 31.1181 31.1177C31.2945 31.2942 31.2357 31.5883 31.0592 31.7648C30.3534 32.353 29.471 32.7648 28.5298 32.9412Z" fill="#5D9D9F"/>
<path d="M26.0007 33.7058C26.1184 33.9411 26.0007 34.1764 25.7654 34.2941L24.3537 34.8823C24.2948 34.8823 24.236 34.9411 24.1772 34.9411C24.0007 34.9411 23.8243 34.8235 23.7654 34.647C23.6478 34.4117 23.7654 34.1764 24.0007 34.0588L25.4125 33.4705C25.6478 33.3529 25.9419 33.4705 26.0007 33.7058Z" fill="#5D9D9F"/>
<path d="M34.8823 14.1177L33.3529 14.5883H33.2352C33.0588 14.5883 32.8823 14.4706 32.8235 14.2941C32.7647 14.0588 32.8823 13.8235 33.1176 13.7647L34.647 13.2941C34.8823 13.2353 35.1176 13.353 35.1764 13.5883C35.2352 13.8235 35.1176 14.0588 34.8823 14.1177Z" fill="#5D9D9F"/>
<path d="M30.5893 15.2354L28.9423 15.6471H28.8246C28.6482 15.6471 28.4717 15.5295 28.4129 15.2942C28.354 15.0589 28.4717 14.8236 28.707 14.7648L30.354 14.353C30.5893 14.2942 30.8246 14.4118 30.8834 14.6471C30.9423 14.8824 30.8246 15.1765 30.5893 15.2354Z" fill="#5D9D9F"/>
<path d="M26.1186 16.4705L24.7069 16.8823H24.5892C24.4127 16.8823 24.2363 16.7646 24.1775 16.5882C24.1186 16.3529 24.2363 16.1176 24.4716 16.0588L25.8833 15.647C26.1186 15.5882 26.3539 15.7058 26.4127 15.9411C26.4716 16.1764 26.3539 16.4117 26.1186 16.4705Z" fill="#5D9D9F"/>
<path d="M22.5311 17.4707L21.5899 17.8824C21.5311 17.8824 21.4722 17.9412 21.4134 17.9412C21.2369 17.9412 21.0605 17.8236 21.0016 17.7059C20.884 17.4706 21.0016 17.2354 21.2369 17.1177L22.1781 16.7059C22.4134 16.5883 22.6487 16.7059 22.7663 16.9412C22.884 17.1177 22.7663 17.4118 22.5311 17.4707Z" fill="#5D9D9F"/>
<path d="M21.1195 14.2353L19.943 14.4117H19.8842C19.6489 14.4117 19.4724 14.2353 19.4724 14C19.4136 13.7647 19.5901 13.5294 19.8842 13.5294L21.0607 13.3529C21.296 13.2941 21.5312 13.4706 21.5312 13.7647C21.5312 13.9411 21.3548 14.1764 21.1195 14.2353Z" fill="#5D9D9F"/>
<path d="M17.1193 14.0588H15.2957C15.0604 14.0588 14.884 13.8823 14.884 13.5882C14.884 13.3529 15.0604 13.1764 15.3545 13.1764H17.1781C17.4134 13.1764 17.5898 13.3529 17.5898 13.647C17.5898 13.8823 17.3545 14.0588 17.1193 14.0588Z" fill="#5D9D9F"/>
<path d="M13.1778 14.2354H11.7073C11.472 14.2354 11.2367 14.0589 11.2367 13.7648C11.2367 13.4707 11.4131 13.2942 11.7073 13.2942H13.1778C13.4131 13.2942 13.6484 13.4707 13.6484 13.7648C13.6484 14.0589 13.4131 14.2354 13.1778 14.2354Z" fill="#5D9D9F"/>
<path d="M15.1777 28C15.1777 28.2353 14.9424 28.4117 14.766 28.4117L13.5307 28.3529C13.2954 28.3529 13.1189 28.1176 13.1189 27.8823C13.1189 27.647 13.3542 27.4706 13.5895 27.4706L14.7071 27.5294C15.0013 27.5294 15.1777 27.7647 15.1777 28Z" fill="#5D9D9F"/>
<path d="M11.707 27.6471C11.707 27.8824 11.5306 28.1177 11.2953 28.1177H11.0011C10.6482 28.1177 10.2953 28.0589 9.94233 27.9412C9.70703 27.8824 9.58938 27.5883 9.70703 27.353C9.76585 27.1177 10.06 27 10.2953 27.1177C10.5894 27.2353 10.9423 27.2942 11.2953 27.2353C11.4717 27.2353 11.6482 27.4118 11.707 27.6471Z" fill="#5D9D9F"/>
</svg>
