<svg width="40" height="40" viewBox="0 0 40 40" fill="none" xmlns="http://www.w3.org/2000/svg">
<path d="M28.2142 11.3963L25.986 12.2345C25.7675 12.3167 25.5184 12.2082 25.4341 11.9842C25.3509 11.7627 25.4631 11.5154 25.6846 11.432L27.9128 10.5939C28.1344 10.5107 28.381 10.6226 28.4647 10.8441C28.5479 11.0657 28.4357 11.3129 28.2142 11.3963Z" fill="#5D9D9F"/>
<path d="M24.1829 9.84439C24.0626 10.0514 23.7988 10.1183 23.597 10.0006C23.3922 9.88206 23.3224 9.62006 23.4407 9.41527L24.5909 7.42782C24.7103 7.22302 24.972 7.15187 25.1768 7.27157C25.3816 7.39015 25.4513 7.65215 25.333 7.85695L24.1829 9.84439Z" fill="#5D9D9F"/>
<path d="M21.708 8.94731C21.4834 8.96602 21.2677 8.79288 21.2515 8.54888L21.122 6.65183C21.1058 6.41578 21.2844 6.21126 21.5205 6.19536C21.7571 6.17862 21.9613 6.35747 21.9769 6.5938L22.1064 8.49084C22.1226 8.72689 21.944 8.93141 21.708 8.94731Z" fill="#5D9D9F"/>
<path d="M38.0914 21.822C35.9943 22.3038 33.9025 21.5516 31.8319 20.8893C27.7427 19.6038 26.4257 20.4478 25.0607 21.5107C23.9521 22.3756 23.4432 22.7187 21.4195 23.1214C16.9672 23.9842 15.4956 23.7916 14.4067 24.254C13.9525 24.4493 13.4285 24.8572 13.3202 25.4177C13.1857 26.1005 13.722 26.7774 14.2912 27.0662C15.6548 27.7421 17.9625 27.1015 19.5233 26.7037C23.0011 25.8177 24.0625 25.7469 28.2851 26.6033L28.1148 27.4431C23.9886 26.6073 23.0537 26.6894 19.7348 27.5344C18.5555 27.8351 17.0321 28.2249 15.7778 28.2249C13.9242 28.2249 12.865 27.3371 12.5354 26.2158L9.31518 24.9061C9.36959 25.1028 9.40112 25.3059 9.38215 25.5101C9.35978 25.7507 9.14332 25.9205 8.91563 25.8968C8.67958 25.8751 8.50659 25.6661 8.52835 25.4303C8.55346 25.163 8.43739 24.8776 8.23259 24.7035C8.1408 24.6253 8.09127 24.5168 8.08388 24.4053C7.17464 24.0351 6.40947 23.6588 5.76105 23.7509C5.37441 23.8067 4.93388 24.1597 4.99264 24.5302C5.01437 24.6611 5.01479 24.7786 5.03505 24.8974C8.60348 27.2503 16.9773 32.639 21.2588 32.4576C22.6637 32.393 24.0635 31.8233 25.405 31.3745C29.4151 30.0324 33.7672 29.4733 37.9832 29.7559C38.4676 29.7885 38.5382 30.488 38.0428 30.5956C37.1309 31.2888 32.8922 30.2393 27.0575 32.2417C26.0958 32.5717 25.1568 32.9666 24.1753 33.2441C18.6355 34.8106 16.0322 32.8111 12.3897 30.7879C10.9304 29.9774 9.42644 29.2481 7.99194 28.3928C5.33205 26.8069 5.23911 26.287 4.23503 25.398C3.67058 25.0246 3.10913 24.6507 2.55011 24.2782C2.22924 24.0642 1.56128 23.6189 1.57467 22.8857C1.59029 22.0835 2.40726 21.6242 3.20971 21.5252C4.95469 21.305 8.41061 23.509 8.55626 23.6027C8.60627 23.6349 8.64721 23.6758 8.67867 23.722L12.4775 25.267C12.5231 25.1788 12.6456 23.9488 14.3215 23.373C13.1302 22.5361 12.2594 21.3702 11.8364 19.9964C10.4009 15.3339 14.384 10.0613 19.6109 10.444C24.2782 10.7805 27.5547 15.4359 25.7205 20.0158C29.7169 17.8451 34.0625 21.8696 37.8994 20.9867C38.1294 20.9336 38.3604 21.0779 38.4128 21.3084C38.4659 21.5391 38.3219 21.769 38.0914 21.822ZM3.31462 22.3756C2.89052 22.4281 2.43683 22.6304 2.43181 22.9021C2.42601 23.2063 2.80404 23.4185 4.14596 24.3098C4.23094 23.6033 4.82974 23.091 5.49773 22.938C4.64128 22.5672 3.82223 22.313 3.31462 22.3756ZM24.6818 14.6016C23.6818 12.7481 21.6673 11.4515 19.5496 11.2989C14.9037 10.9556 11.404 15.6801 12.6556 19.7442C13.1009 21.1903 14.116 22.3806 15.52 23.1086C15.6554 23.0917 19.8248 22.6847 22.1967 22.0673C23.0379 21.8481 23.4726 21.6377 24.1481 21.1293C25.5283 19.2288 25.828 16.7266 24.6818 14.6016Z" fill="#5D9D9F"/>
<path d="M14.1517 25.9301C14.0624 25.1935 14.7225 24.6427 15.3894 24.4987C15.892 24.3897 16.391 24.4024 16.8397 24.3369C17.0144 24.312 17.1879 24.3963 17.2756 24.5512C18.1469 26.1036 17.4315 27.2381 16.1913 27.2381C15.3569 27.2381 14.256 26.8034 14.1517 25.9301ZM16.6522 25.2211C16.2491 25.257 15.8997 25.2654 15.5702 25.3363C15.2817 25.3988 14.9776 25.6218 15.0027 25.8274C15.0638 26.3376 17.4278 27.0188 16.6522 25.2211Z" fill="#5D9D9F"/>
<path d="M33.5784 26.48C32.9624 25.7875 32.0422 25.3466 31.1164 25.3003C30.5475 25.2721 30.5977 24.415 31.1588 24.4443C32.3268 24.5026 33.4423 25.0369 34.2191 25.9102C34.5981 26.3363 33.9495 26.8962 33.5784 26.48Z" fill="#5D9D9F"/>
<path d="M19.3166 17.2537C19.3162 17.5559 19.3189 17.859 19.317 18.1605C19.3142 18.5864 19.3038 19.0122 19.2982 19.4382C19.7027 19.3534 20.2681 19.1461 20.4186 18.7596C20.5051 18.5389 20.7534 18.4298 20.9738 18.516C21.6489 18.7792 21.0149 20.0518 19.2854 20.3122C19.2796 20.6327 19.2786 20.9533 19.2712 21.2738C19.2657 21.507 19.0748 21.6923 18.8427 21.6923H18.8326C18.596 21.6867 18.4085 21.4903 18.4141 21.2537C18.4213 20.9434 18.4222 20.6329 18.4278 20.3225C16.8789 20.1265 16.0815 18.8856 16.2919 18.0154C16.413 17.5132 16.9247 16.9685 17.4314 16.8014C17.7733 16.6887 18.1178 16.6151 18.4592 16.5484C18.4578 15.9446 18.4539 15.3441 18.447 14.742C17.9201 14.8793 17.4493 15.2445 17.2015 15.7389C17.0955 15.9498 16.8376 16.0369 16.6261 15.9298C16.4147 15.8237 16.3287 15.5662 16.4347 15.3544C17.0935 14.0425 18.3777 13.8822 18.4349 13.8565C18.4307 13.5931 18.4294 13.3269 18.4241 13.0648C18.4197 12.8282 18.6072 12.6326 18.8438 12.6276C18.8471 12.6276 18.8499 12.6276 18.8527 12.6276C19.0854 12.6276 19.2763 12.8137 19.2813 13.0475C19.2867 13.3132 19.2879 13.583 19.2922 13.8501C20.8035 14.0727 21.717 15.3491 21.2578 16.2649C20.9228 16.9381 20.0977 17.1011 19.3166 17.2537ZM17.6998 17.6156C17.4732 17.6904 17.1775 17.9995 17.125 18.2163C17.0709 18.4412 17.2143 18.7068 17.3661 18.8804C17.6286 19.1793 18.0191 19.3893 18.4405 19.4626C18.4464 19.0267 18.457 18.591 18.4599 18.1549C18.4614 17.9111 18.4589 17.666 18.4595 17.4216C18.2002 17.4753 17.9458 17.5344 17.6998 17.6156ZM20.2188 15.1976C19.9657 14.9573 19.643 14.8036 19.3041 14.7292C19.3104 15.2799 19.3146 15.8286 19.3162 16.3809C19.3272 16.3787 19.3383 16.3768 19.3494 16.3745C19.828 16.2756 20.3478 16.1702 20.4911 15.8818C20.6035 15.6593 20.4015 15.372 20.2188 15.1976Z" fill="#5D9D9F"/>
</svg>
