<svg width="41" height="40" viewBox="0 0 41 40" fill="none" xmlns="http://www.w3.org/2000/svg">
<path d="M19.7761 3.88075L19.7376 3.8437C28.2582 3.76158 36.8817 10.6431 36.7345 20.7573C36.5921 30.541 28.7102 37.4403 19.5128 37.0175C18.3053 36.962 17.1049 36.7709 15.9397 36.4359C14.4918 37.573 12.09 38.3303 10.5187 37.693C9.8771 37.4272 9.30554 37.0005 8.82736 36.4551C7.05627 34.8373 6.78701 32.0758 7.20506 29.6715C4.56741 25.9269 3.8219 21.6199 4.50008 17.6115C5.74743 10.2389 11.811 3.87637 19.7761 3.88075ZM11.517 7.51384C11.5454 7.57731 11.5638 7.6456 11.5563 7.71972C11.4208 9.05871 12.8663 9.99746 14.0343 9.34001C14.8972 8.85354 15.371 7.59417 16.5274 7.17177C18.6451 6.39681 20.212 8.8638 21.9276 8.68611C22.5815 8.61655 23.2258 8.10445 23.5699 7.38153C23.8269 6.84074 23.9415 6.17206 23.9399 5.31911C19.5177 4.00599 15.1705 4.80883 11.517 7.51384ZM34.4908 15.9967C31.6103 15.1303 27.7257 16.9451 30.5407 18.4068C31.1954 18.737 31.8685 19.0411 32.2418 19.6643C32.7159 20.4562 32.4697 21.5692 31.704 22.0947C31.41 22.295 31.0262 22.4378 30.9837 22.5999C30.885 22.9769 32.7869 24.2349 34.8823 23.6147C35.0999 22.6156 35.224 21.5871 35.2485 20.5402C35.2854 18.9717 35.0937 17.4548 34.6803 16.0039C34.6188 16.0149 34.5551 16.0162 34.4908 15.9967ZM26.6585 30.4359C25.6854 28.644 23.6349 28.1415 23.3687 28.4592C23.1996 28.6611 23.4708 29.2206 23.5522 29.69C23.7765 30.9618 22.5389 32.2145 21.2614 32.008C19.7987 31.7685 19.1111 30.0576 17.9909 29.9136C17.4601 29.8478 16.8431 30.17 16.3353 30.7816C15.5971 31.67 15.1255 33.5147 15.2436 34.8772C16.7832 35.4323 18.303 35.7052 19.8365 35.7393C22.3116 35.7897 24.7033 35.2338 26.8557 34.1331C27.166 33.0409 27.1685 31.3746 26.6585 30.4359ZM16.1919 23.1473C16.2176 22.4856 16.298 21.841 16.3968 20.9801C16.4107 20.8534 16.4852 20.7503 16.5846 20.685C17.1229 20.1753 18.0628 19.1633 19.6449 18.0124C19.8514 17.8635 20.1385 17.9339 20.2528 18.158C21.3348 20.2788 22.0143 22.2924 22.4424 24.6283C22.8014 24.4477 22.8236 24.4366 22.8924 24.3983C22.4638 21.4333 22.3873 18.6272 22.3466 16.0026C22.3445 15.8731 22.4039 15.7505 22.5061 15.6713C23.8695 14.6156 25.1147 13.7311 26.308 12.9701C26.5317 12.2798 26.6879 12.1711 26.5921 12.0241C26.5177 11.9088 26.4731 11.9788 25.7445 11.9005C24.204 12.9268 22.7517 13.8236 21.4263 14.568C21.315 14.6306 21.1801 14.6381 21.0618 14.5867C18.7218 13.5759 16.0517 12.7299 13.3243 12.1338C13.2913 12.1859 13.2361 12.2762 13.2037 12.3312C15.1342 13.2737 17.1046 14.6688 18.9289 16.3985C19.0955 16.5561 19.1008 16.8189 18.9407 16.9834C17.8528 18.1018 16.8699 19.0227 16.0196 19.721C15.6516 20.0211 15.2769 19.5022 13.229 19.0944C13.143 19.1954 13.0526 19.3147 12.963 19.4421C14.7876 20.6035 15.4136 21.0911 16.0262 23.2178C16.0277 23.2172 16.1585 23.1611 16.1919 23.1473ZM13.8632 21.0636C10.2482 24.9694 5.89697 32.3528 9.63724 36.1119C7.05777 32.1274 10.7089 26.0621 14.7658 22.1957C14.5484 21.7508 14.2424 21.3672 13.8632 21.0636ZM9.67757 32.4623C9.57769 33.5482 9.721 34.3478 9.97622 34.9886C11.0582 36.5635 13.0471 36.7177 14.3654 35.8897C12.7917 35.2289 11.3355 34.2624 10.2652 32.9771C10.0641 32.8128 9.87158 32.6368 9.67757 32.4623ZM12.6451 20.2151C12.4883 20.1129 12.3403 20.0197 12.2132 19.9472C12.1983 19.9405 12.1817 19.9431 12.1674 19.9345C11.9731 19.8168 11.9105 19.5642 12.0277 19.37C12.1422 19.1805 12.4456 18.7022 12.7897 18.3581C12.8839 18.2634 13.0187 18.22 13.1514 18.2441C14.0729 18.4057 14.8889 18.6722 15.6739 18.9397C16.3813 18.3458 17.1813 17.5972 18.0583 16.7094C16.2572 15.0544 14.3276 13.7353 12.4569 12.8819C12.2652 12.7945 12.1799 12.5787 12.2428 12.383C12.2527 12.3153 12.2734 12.249 12.3183 12.191C12.5849 11.8462 12.7965 11.1838 13.2547 11.2781C16.0447 11.8716 18.7871 12.7256 21.1999 13.7519C25.0546 11.5668 25.2969 11.0195 25.6942 11.0668C26.4476 11.1627 26.922 11.029 27.2792 11.5725C27.4553 11.8405 27.4922 12.1798 27.3771 12.4795C26.6163 14.319 27.8526 12.5943 23.1718 16.1957C23.2156 18.9109 23.2996 21.5997 23.7443 24.5401C23.8221 25.0567 22.947 25.1964 22.4585 25.5665C22.243 25.7289 21.9117 25.6491 21.822 25.3595C21.4653 25.0096 21.6626 22.921 19.7385 18.9681C18.902 19.6069 18.1006 20.3237 17.1945 21.2375C17.1641 21.5676 17.1192 21.7 17.0259 23.1667C16.9862 23.7902 16.9511 23.7154 16.3861 23.9579C15.9656 24.14 15.9392 24.1586 15.796 24.1384C15.5646 24.1738 15.3709 24.0204 15.3293 23.8151C15.2777 23.5591 15.1932 23.2879 15.1 23.0218C12.6296 25.422 10.525 28.028 9.82165 31.4832C11.1725 32.7869 12.731 33.8144 14.4084 34.5364C14.3913 33.0279 14.9093 31.2117 15.7028 30.2561C16.4016 29.4149 17.2755 28.9949 18.0958 29.0981C19.5798 29.2891 20.2674 31.0129 21.3941 31.1968C22.1091 31.3152 22.8688 30.5488 22.7431 29.8323C22.6492 29.3058 22.2259 28.5424 22.7389 27.9316C23.0492 27.5592 23.5838 27.4457 24.2452 27.6116C25.561 27.9423 26.7334 28.8509 27.3809 30.0431C27.8886 30.9784 27.9802 32.4185 27.8076 33.5991C31.0729 31.6123 33.5661 28.3993 34.6534 24.5219C33.2949 24.7858 31.9302 24.4713 30.8885 23.7567C30.3197 23.3656 30.0644 22.8685 30.1886 22.3917C30.3396 21.8162 30.9167 21.6357 31.2395 21.4167C31.6451 21.1385 31.7869 20.5039 31.5365 20.0865C31.2902 19.6742 30.7582 19.4367 30.1613 19.1356C28.0805 18.0551 28.417 16.2663 30.3191 15.4552C31.5876 14.9132 33.0553 14.8033 34.4006 15.1271C32.8277 10.6873 29.1878 7.17414 24.7668 5.5884C24.7011 8.12304 23.3443 9.36161 22.0154 9.50375C20.0719 9.70615 18.3597 7.37701 16.8094 7.94339C15.9257 8.26698 15.4659 9.47656 14.4378 10.056C12.955 10.892 10.9473 10.0122 10.7463 8.12372C7.91767 10.5161 6.01361 13.8873 5.34674 17.5141C4.67153 21.1863 5.26467 25.1205 7.45067 28.566C8.31544 25.4035 10.548 22.6715 12.6451 20.2151Z" fill="#5D9D9F"/>
<path d="M8.21061 15.4183C8.50479 15.2137 8.51562 15.2045 8.48726 14.8088C8.47388 14.6231 8.4589 14.4123 8.51562 14.1913C8.80922 13.0455 10.4691 12.9788 10.9359 14.1838C11.2648 15.0334 12.7428 15.4432 12.0532 17.2189C11.4587 18.751 9.20639 19.354 8.00406 18.2147C7.63377 17.8642 7.41866 17.3361 7.42936 16.8026C7.44336 16.1402 7.74441 15.7406 8.21061 15.4183ZM11.2869 16.9214C11.7719 15.6729 10.6264 15.6586 10.1696 14.4808C10.0873 14.2686 9.87757 14.1249 9.69445 14.1249C9.52589 14.1249 9.34984 14.248 9.31185 14.3952C9.24505 14.6563 9.43106 15.1235 9.1952 15.5751C8.88348 16.1729 8.26594 16.068 8.25128 16.8192C8.22142 18.3472 10.7375 18.3404 11.2869 16.9214Z" fill="#5D9D9F"/>
<path d="M11.503 4.69109L11.2028 2.54266C11.1718 2.31791 11.3286 2.11029 11.5533 2.07872C11.7792 2.04662 11.9857 2.20501 12.0173 2.42921L12.3175 4.57765C12.3918 5.11608 11.5788 5.22987 11.503 4.69109Z" fill="#5D9D9F"/>
<path d="M8.95836 3.36783L10.2983 5.29046C10.6124 5.7404 9.92814 6.19705 9.62403 5.76028L8.28413 3.83765C8.1541 3.65144 8.20012 3.39512 8.38634 3.26563C8.57362 3.13613 8.82887 3.18215 8.95836 3.36783Z" fill="#5D9D9F"/>
<path d="M8.07011 7.79734L5.69853 6.01866C5.51713 5.88274 5.48021 5.62482 5.61666 5.44342C5.75258 5.26256 6.00943 5.2251 6.1919 5.36155L8.56347 7.14023C9.00122 7.46822 8.49889 8.12048 8.07011 7.79734Z" fill="#5D9D9F"/>
</svg>
