<svg width="40" height="40" viewBox="0 0 40 40" fill="none" xmlns="http://www.w3.org/2000/svg">
<path d="M15.6891 32.1449C10.7525 29.1095 11.8856 21.5525 17.6085 20.1693C21.2611 19.3542 24.6867 21.5884 25.5082 25.0361C26.856 30.6978 20.6472 35.1933 15.6891 32.1449ZM13.9173 24.1725C16.5334 24.1138 19.2878 23.9941 21.7398 23.7112C21.2595 22.6458 20.685 21.7217 19.9984 20.892C17.4572 20.4766 14.9802 21.8409 13.9173 24.1725ZM24.7088 25.2266C24.2754 23.4074 22.9882 21.9557 21.304 21.266C21.811 22.0053 22.2525 22.8043 22.6248 23.6863C22.7984 24.0275 22.5491 24.4456 22.201 24.4812C22.1885 24.4829 22.1746 24.4844 22.162 24.4861L21.7628 25.3275C19.7576 25.4946 16.6896 25.5811 13.4689 25.6313C13.0917 27.9772 14.1567 30.2379 16.1196 31.4448C20.4467 34.1058 25.8897 30.1877 24.7088 25.2266Z" fill="#5D9D9F"/>
<path d="M37.4554 36.2172C37.2665 36.6468 36.8758 36.9503 36.4347 37.0822C35.5158 37.3572 34.7554 36.8981 33.9425 36.5395C32.8919 36.0762 27.6881 33.4704 26.658 32.9535C26.5093 32.9354 26.3583 32.8914 26.2113 32.8255C26.1982 32.8382 26.1818 32.8508 26.1712 32.8635C24.2695 35.1303 21.2071 36.3999 18.2592 36.0839C13.6189 35.5951 9.44347 31.1077 10.4289 25.6653C7.64995 25.6871 4.96357 25.6816 2.93653 25.6762L2.65366 24.9324C2.34933 24.9186 2.1998 24.6677 2.24451 24.4411C2.57226 22.7924 3.12556 20.7069 4.50746 19.1981C7.01629 16.4514 10.3184 15.5307 13.1199 16.0022C14.3833 16.2208 16.372 16.8763 17.5699 17.6608C17.7526 17.7813 17.9276 17.9033 18.1005 18.0266C23.8408 17.2763 28.7537 22.2822 27.7225 28.0895C28.6696 28.0911 29.289 28.9408 29.3167 29.9421C31.8173 31.2519 34.5182 32.6926 36.8986 33.9386C37.5057 34.2562 38.0014 35.3294 37.6383 35.9747C37.5925 36.0564 37.5277 36.1376 37.4554 36.2172ZM12.9816 16.8126C10.4447 16.3853 7.42546 17.2218 5.114 19.7528C3.9943 20.9752 3.46775 22.6723 3.15017 24.1246C8.59557 24.2558 10.6111 24.213 10.8116 24.2143C11.0725 23.464 11.4267 22.748 11.8678 22.0898C13.0635 20.1415 14.8291 18.8491 16.9679 18.2583C15.852 17.5752 14.112 17.0082 12.9816 16.8126ZM26.8285 24.7683C25.3211 18.4023 17.051 16.6322 13.0271 21.8506C9.25003 26.7697 12.4403 34.2755 19.2782 34.3924C24.2204 34.3924 28.0033 29.7067 26.8285 24.7683ZM27.5247 28.9403C27.2394 29.9408 26.7812 30.8946 26.1398 31.7486C26.2614 31.9479 26.6283 32.1714 26.8274 32.1439C27.1415 32.1027 27.5468 31.9033 27.7909 31.67C28.0921 31.3822 28.2947 31.0076 28.4474 30.4554C28.6588 29.691 28.2911 28.7627 27.5247 28.9403ZM36.5176 34.6669C34.2348 33.472 31.7078 32.1246 29.1955 30.807C29.0391 31.3202 28.8271 31.7266 28.5446 32.0572C31.0759 33.3869 33.6115 34.7974 36.0023 36.0485C36.1663 36.1373 36.7627 35.8553 36.9218 35.572C37.0163 35.4053 36.7811 34.8047 36.5176 34.6669Z" fill="#5D9D9F"/>
<path d="M15.9733 10.3638C15.844 11.2776 15.5662 12.2722 14.9685 13.1311C14.0188 14.4961 12.3343 15.2668 10.8338 14.8309C8.79296 14.2389 8.25191 12.6266 7.89071 10.5571C6.60138 10.3876 6.46624 8.57142 7.22681 8.06359C6.6166 5.82201 7.69061 3.69325 9.51823 3.02038C10.6679 2.59738 12.125 2.91657 13.0264 3.75855C14.4883 3.38186 16.097 4.4998 16.3009 6.58389C16.3425 7.01024 16.3207 7.42768 16.2697 7.81777C16.8264 7.96207 17.1056 8.49281 17.0444 9.05901C16.9809 9.6494 16.4573 10.1759 15.9733 10.3638ZM14.2937 12.6619C14.8674 11.8372 15.1712 10.7551 15.2435 9.29061C13.6179 9.3687 11.2482 8.28766 10.1001 6.83245C9.8539 7.81165 9.43157 8.73327 8.61434 9.3082C8.61183 9.32041 8.60497 9.33128 8.60139 9.34322C8.66617 10.2854 8.76881 11.2704 9.14686 12.1565C9.5522 13.1063 10.2684 13.811 11.0631 14.0416C12.3018 14.4023 13.627 13.62 14.2937 12.6619ZM15.4827 6.66416C15.318 4.97807 14.0285 4.20736 13.0705 4.60856C12.9086 4.67598 12.7208 4.63318 12.6039 4.50181C11.9636 3.77755 10.7067 3.46023 9.80183 3.79173C8.05665 4.43436 7.36283 6.6858 8.28103 8.53167C9.05165 7.88887 9.3303 6.74325 9.50779 5.57977C9.57387 5.14416 10.1859 5.11127 10.3083 5.52573C10.7704 7.09799 13.693 8.61253 15.3112 8.46167C15.4759 7.74992 15.5335 7.18113 15.4827 6.66416Z" fill="#5D9D9F"/>
<path d="M24.1033 16.9806C23.7316 16.9806 23.552 16.5227 23.8224 16.2698L25.2303 14.9526C25.3956 14.798 25.6562 14.8063 25.8111 14.9721C25.966 15.138 25.9575 15.3981 25.7916 15.553C24.3761 16.8259 24.3892 16.9806 24.1033 16.9806Z" fill="#5D9D9F"/>
<path d="M22.2672 15.6296C22.2198 15.8156 22.0529 15.9392 21.8693 15.9392C21.6012 15.9392 21.4046 15.6864 21.4709 15.4268L22.3745 11.8836C22.4304 11.664 22.6541 11.531 22.8743 11.5872C23.0942 11.6431 23.2269 11.867 23.1707 12.087L22.2672 15.6296Z" fill="#5D9D9F"/>
<path d="M19.7042 15.3072C19.5493 15.3072 19.4008 15.2192 19.3312 15.0693C19.0093 14.3767 18.7421 13.6529 18.5363 12.9182C18.475 12.6996 18.6027 12.473 18.8213 12.4118C19.0393 12.3499 19.2665 12.4778 19.3277 12.6967C19.5214 13.3886 19.7735 14.0703 20.0766 14.7231C20.2033 14.996 20.0026 15.3072 19.7042 15.3072Z" fill="#5D9D9F"/>
</svg>
