<svg width="40" height="40" viewBox="0 0 40 40" fill="none" xmlns="http://www.w3.org/2000/svg">
<path d="M0 20C0 8.95431 8.95431 0 20 0C31.0457 0 40 8.95431 40 20C40 31.0457 31.0457 40 20 40C8.95431 40 0 31.0457 0 20Z" fill="#EAEFEF"/>
<path d="M17.8409 23.397C21.4855 19.3022 25.5203 15.3151 29.941 12.0072C29.9476 12.0024 29.9557 11.9998 29.964 12C29.9723 12.0002 29.9802 12.0031 29.9866 12.0082C29.993 12.0133 29.9974 12.0204 29.9992 12.0283C30.0009 12.0362 29.9999 12.0444 29.9963 12.0516C29.7846 12.4651 29.5563 12.8769 29.3113 13.287C26.1447 18.5932 22.2739 23.3654 18.2539 27.9829C18.2358 28.0035 18.2157 28.0055 18.1934 27.9889C15.4065 25.9027 12.8677 23.35 11.1516 20.3377C11.075 20.2033 11.0247 20.0694 11.0007 19.9361C10.9992 19.9271 11.0001 19.9178 11.0033 19.9092C11.0065 19.9006 11.0119 19.8929 11.0189 19.887C11.026 19.881 11.0345 19.877 11.0436 19.8753C11.0527 19.8736 11.0621 19.8743 11.0709 19.8772C13.5114 20.676 15.7047 21.9156 17.7444 23.4064C17.7587 23.417 17.7767 23.422 17.7946 23.4202C17.8125 23.4185 17.829 23.4102 17.8409 23.397Z" fill="#5D9D9F"/>
</svg>
