<svg width="100" height="100" viewBox="0 0 100 100" fill="none" xmlns="http://www.w3.org/2000/svg">
<path d="M20.3774 74.5284C16.2265 80.1887 13.7736 87.1699 13.585 94.3397C13.585 95.0944 14.151 95.8491 15.0944 95.8491L32.6416 96.0378H50.1887H67.7359L85.2831 95.8491C86.0378 95.8491 86.7925 95.0944 86.7925 94.3397C86.6038 87.1699 84.151 80.1887 80.0001 74.5284C77.9246 71.6982 75.4718 69.2453 72.6416 67.1699C70.3774 65.4718 67.9246 64.151 65.2831 63.0189C67.7359 60.5661 69.6227 57.7359 70.7548 54.5284C72.0755 50.7548 72.0755 46.7925 71.1321 43.2076C71.5095 42.8302 71.8868 42.2642 72.2642 41.8868C72.4529 41.3208 72.8302 40.7548 72.8302 40.1887C73.0189 38.6793 72.4529 24.151 72.4529 23.2076C73.585 22.8302 74.717 22.2642 75.8491 21.8869C75.8491 25.2831 76.0378 28.868 76.2265 32.2642C76.6038 36.6038 76.9812 40.7548 77.5472 45.0944C79.434 45.6604 80.3774 47.3585 80.1887 48.868C80.0001 50.1887 78.868 51.1321 77.5472 51.1321C76.4151 51.1321 75.0944 50.1887 74.9057 48.868C74.717 47.5472 75.4717 45.8491 77.5472 45.0944C76.6038 44.717 75.4718 44.9057 74.5284 45.6604C73.585 46.4151 73.0189 47.5472 72.8302 48.6793C72.6416 50.0001 73.2076 51.3208 74.151 52.2642C75.0944 53.2076 76.4151 53.7736 77.7359 53.7736C79.0567 53.7736 80.3774 53.2076 81.3208 52.2642C82.2642 51.3208 82.6416 50.0001 82.6416 48.6793C82.6416 47.3585 81.8868 46.2265 80.9435 45.6604C80.0001 44.9057 78.868 44.717 77.9246 45.0944C78.6793 40.7548 79.0567 36.6038 79.2453 32.2642C79.434 28.3019 79.6227 24.3397 79.6227 20.3774C81.1321 19.8114 82.8302 19.0567 84.3397 18.4906C84.717 18.3019 84.9057 18.1133 85.0944 17.7359C85.2831 16.9812 84.9057 16.2265 84.151 15.8491C78.4906 13.7736 72.8302 11.8868 67.3585 9.81138C61.6982 7.92459 56.0378 5.84911 50.3774 4.151C55.8491 6.79251 61.3208 9.05666 66.7925 11.5095C71.1321 13.3963 75.4717 15.2831 79.8114 16.9812C79.2453 17.1699 78.6793 17.3585 78.1133 17.5472C75.8491 17.3585 73.585 17.1699 71.3208 16.9812C69.0567 16.7925 66.7925 16.7925 64.5284 16.6038C61.1321 16.6038 57.7359 16.6038 54.151 16.7925C54.5284 15.8491 53.9623 14.717 53.2076 13.9623C51.5095 12.4529 49.0567 12.2642 46.9812 13.2076C46.4151 13.3963 45.8491 13.9623 45.4718 14.5284C45.0944 15.0944 44.717 15.8491 44.717 16.7925C44.717 17.7359 45.0944 18.4906 45.4718 19.0567C45.8491 19.6227 46.4151 20.0001 46.9812 20.3774C49.0567 21.3208 51.5095 21.1321 53.2076 19.6227C53.585 19.2453 53.9623 18.6793 54.151 18.1133C57.5472 18.868 60.7548 19.434 64.151 20.0001C66.2265 20.1887 68.1133 20.5661 70.1887 20.7548C69.0567 21.1321 67.7359 21.6982 66.6038 22.0755L50.5661 28.3019C44.5284 26.0378 35.6604 22.4529 21.3208 17.1699C25.6604 15.2831 30.0001 13.585 34.3397 11.6982C39.8114 9.24534 45.2831 6.98119 50.7548 4.33968C45.0944 6.03779 39.434 8.11327 33.7736 10.0001C28.1133 11.8869 22.4529 13.9623 16.9812 16.0378C15.4718 15.4718 15.2831 15.8491 15.0944 16.2265C14.717 16.9812 15.0944 17.7359 15.8491 18.1133C19.8114 19.8114 23.585 21.3208 27.5472 23.0189C27.5472 24.3397 26.9812 38.3019 27.1699 40.0001C27.3585 41.3208 28.1133 42.4529 28.868 43.0189C29.0567 43.2076 29.0567 43.2076 29.2453 43.3963C27.5472 50.0001 29.434 57.5472 35.0944 63.0189C32.4529 64.151 30.0001 65.4718 27.7359 67.1699C24.9057 69.2453 22.4529 71.6982 20.3774 74.5284ZM49.8114 16.7925C50.5661 16.9812 51.5095 17.1699 52.2642 17.3585C52.0755 17.5472 51.6982 17.5472 51.5095 17.5472C50.7548 17.7359 50.1887 17.5472 49.6227 17.5472C49.0567 17.3585 48.4906 17.1699 48.1133 16.7925C47.9246 16.6038 47.7359 16.4152 47.7359 16.4152C47.7359 16.4152 47.7359 16.2265 48.1133 16.0378C48.4906 15.6604 49.0567 15.4718 49.6227 15.2831C50.1887 15.0944 50.9434 15.0944 51.5095 15.2831C52.2642 15.4718 52.8302 15.6604 53.3963 16.4152C52.0755 16.6038 50.9435 16.6038 49.8114 16.7925ZM49.0567 31.5095C49.434 31.6982 50.0001 31.6982 50.3774 31.5095C65.4718 25.4718 64.717 25.8491 69.434 23.9623C69.0567 32.4529 69.0567 39.434 69.0567 38.868V39.2453C69.0567 39.6227 68.6793 40.1887 68.3019 40.5661C62.8302 45.6604 37.1699 45.8491 31.3208 40.5661C30.7548 40.1887 30.5661 39.6227 30.5661 39.2453C30.5661 39.0567 30.5661 39.0567 30.5661 38.868C30.5661 34.5284 30.3774 27.9246 30.1887 23.9623C34.717 25.8491 32.8302 25.0944 49.0567 31.5095ZM29.8114 43.7736C37.5472 49.8114 62.6416 50.0001 70.1887 43.3963C70.5661 56.6038 60.1887 65.8491 48.868 65.0944C38.4906 64.5284 29.6227 55.8491 29.8114 43.7736ZM35.2831 63.0189C39.0567 66.6038 43.7736 68.4906 48.4906 68.868C54.3397 69.2453 60.1887 67.3585 64.717 63.0189C67.1699 64.3397 69.6227 66.0378 71.6982 67.7359C74.151 70.0001 76.4151 72.6416 78.1133 75.4718C81.3208 80.5661 83.2076 86.6038 83.3963 92.6416L67.5472 92.4529H50.0001H32.4529L16.6038 92.6416C16.7925 86.6038 18.6793 80.5661 21.8868 75.4718C23.585 72.6416 25.8491 70.0001 28.3019 67.7359C30.5661 66.0378 32.8302 64.5284 35.2831 63.0189Z" fill="#3D898D"/>
</svg>
