<svg width="100" height="100" viewBox="0 0 100 100" fill="none" xmlns="http://www.w3.org/2000/svg">
<path d="M87.1724 14.9005C85.7788 15.1096 86.0833 17.2352 87.4933 17.0183L92.45 16.2635C93.0346 16.1743 93.4364 15.6274 93.3471 15.0428C93.2578 14.4569 92.7081 14.0579 92.1264 14.1458L87.1724 14.9005Z" fill="#3D898D"/>
<path d="M86.8531 7.10892C86.4081 6.72109 85.7287 6.76992 85.3423 7.21635L82.52 10.4739C82.1335 10.9217 82.1824 11.5983 82.6288 11.9862C83.0793 12.3719 83.7523 12.3249 84.1411 11.8773L86.9606 8.61981C87.3484 8.17198 87.2996 7.49536 86.8531 7.10892Z" fill="#3D898D"/>
<path d="M78.9094 9.44012C79.4953 9.44012 79.9738 8.96858 79.9808 8.38125L80.0199 4.83494C80.0255 4.24342 79.5511 3.75932 78.9596 3.75235C78.4016 3.71468 77.884 4.2197 77.877 4.81261L77.838 8.35614C77.831 8.94766 78.3053 9.43315 78.8968 9.44012C78.901 9.44012 78.9052 9.44012 78.9094 9.44012Z" fill="#3D898D"/>
<path d="M15.0617 65.354C14.7883 64.8308 14.1424 64.6271 13.6164 64.8964C13.0919 65.1698 12.8868 65.8157 13.1588 66.3417L16.5559 72.8888C16.828 73.4112 17.4712 73.6185 18.0012 73.3464C18.5258 73.073 18.7308 72.4271 18.4588 71.9011L15.0617 65.354Z" fill="#3D898D"/>
<path d="M29.4609 93.4568C33.1619 93.7753 36.9211 93.6542 40.6164 93.1676C43.4951 97.4558 49.7413 97.0628 51.9182 93.2658L62.2973 56.7651C62.656 56.3708 62.8036 55.9324 63.034 55.4516C65.9681 49.3297 68.9255 43.1415 70.4035 36.5155C73.0613 33.7003 75.4384 30.7608 77.732 27.6417C78.5057 26.5896 79.267 25.5036 79.7015 24.2721C81.1593 20.1407 78.3125 14.1198 71.4847 11.3737C68.2447 10.0724 62.8347 9.27125 59.5442 10.3065C57.6873 10.891 56.189 12.088 55.4314 13.5933C53.3614 17.7244 55.9284 27.2132 56.6689 32.6446C56.6781 32.712 56.713 32.767 56.734 32.8292C54.6866 39.1055 52.6583 49.4322 51.9688 52.7604L45.7567 74.715C45.6476 72.9628 46.0248 72.1785 45.2947 71.6667C44.8842 71.3789 44.4917 71.4639 44.0433 71.6108C44.1427 71.1815 44.121 70.9468 44.1703 67.2415C44.1779 66.6626 43.7351 66.1514 43.0681 66.1761L42.7194 46.6332C42.702 45.7485 41.8678 45.5921 41.3752 45.4154C40.9767 41.2203 42.6207 32.263 38.1686 27.8511C37.2311 26.9206 36.189 26.4686 35.2068 26.5495C34.2124 26.6285 33.7005 27.1722 33.3402 28.045C30.5552 34.746 31.5296 40.1222 31.1694 44.6675C31.1648 44.8845 31.2414 45.0684 31.3488 45.2299C30.0239 45.6302 29.3387 46.0459 29.4981 47.4396C29.5566 47.9072 29.5197 65.6575 29.6244 66.1604C28.8645 66.1543 28.4637 66.6688 28.456 67.2108C28.3872 72.1709 28.3592 71.2574 28.4114 71.5547C28.3399 71.5413 28.2652 71.5339 28.191 71.5247L20.8667 56.968C20.6337 56.5021 20.0924 56.2761 19.6 56.424C15.543 57.6516 11.7916 59.8182 8.34996 61.9708C7.94258 62.2195 7.81821 62.4593 7.67194 62.5763C7.20224 62.8251 7.01181 63.3716 7.17651 63.8616C7.09821 63.7263 7.01477 63.5895 6.93682 63.4542C6.84501 64.2902 6.73244 65.124 6.64062 65.96C21.3195 94.5097 15.014 81.9695 18.6651 89.7647C19.2375 90.9869 19.8668 92.8094 21.4512 92.9463C22.0381 92.9968 26.618 93.0974 26.1693 91.859C26.6107 93.0766 28.3228 93.3588 29.4609 93.4568ZM53.279 56.0005C54.853 56.9753 56.5454 57.5107 58.1825 57.5107C58.3444 57.5107 58.5 57.4726 58.6605 57.4625C48.2588 94.2795 48.9806 91.9687 48.7559 92.2819C48.1013 93.1923 46.6689 93.7711 45.0687 93.3227C44.0991 92.9962 43.4099 91.8425 43.4699 90.6678L53.279 56.0005ZM57.3469 14.5545C57.8449 13.5654 58.8787 12.7618 60.1859 12.3517C62.9424 11.4887 67.8515 12.2227 70.6853 13.3631C72.7822 14.2058 74.5609 15.4585 75.8332 16.9862C78.6456 20.3671 78.1061 21.8773 75.2361 25.4892C72.9821 28.3242 70.1249 31.1963 67.683 34.2288C66.9585 34.1338 66.2307 34.0188 65.4983 33.8674C66.7472 32.055 67.677 30.0172 68.1756 27.8762C68.3095 27.3001 67.951 26.7239 67.3748 26.59C66.7958 26.4532 66.2211 26.8132 66.0885 27.3907C65.5886 29.5397 64.6022 31.576 63.2522 33.3246C62.9114 33.2283 62.575 33.1034 62.2355 32.9958C60.8146 27.4617 63.8586 24.5468 64.0098 20.0414C64.0294 19.4499 63.5648 18.9546 62.9733 18.9351C62.3943 18.9532 61.8865 19.3801 61.867 19.9717C61.7448 23.679 59.0595 26.6658 59.8749 32.1499C59.4761 31.9901 59.0758 31.8349 58.6829 31.6599C57.9251 26.5936 56.6991 22.1432 56.8084 17.6126C56.8335 16.5579 56.8963 15.453 57.3469 14.5545ZM58.6039 33.9714C61.2169 35.0595 63.9526 35.8394 66.6326 36.2579C65.0355 41.4313 60.2653 53.0049 59.1131 55.2883C57.4711 55.5757 55.6156 55.0763 53.9415 53.8974C54.3073 51.2967 56.9517 39.1762 58.6039 33.9714ZM41.5634 89.5345C39.9097 89.5804 36.3193 90.7233 28.9373 89.4206C28.9188 84.85 28.8943 78.7978 28.8745 73.9072C31.5799 74.8935 40.2585 74.7924 43.6108 73.9756L43.6383 82.2013L41.5634 89.5345ZM30.2204 72.0804C30.3801 71.9094 30.498 71.6973 30.5151 71.4463C30.5503 70.9114 30.55 70.9184 30.5835 68.3478C32.8717 68.5522 35.507 69.3311 42.0107 68.4678C42.027 71.3111 41.7683 71.5547 42.2045 72.0674C38.5249 72.7326 31.7645 72.449 30.2204 72.0804ZM33.3151 44.602C33.4873 39.86 33.3197 37.865 33.7094 34.9425C35.2551 37.4793 36.7791 38.2728 38.3946 39.2657C38.5704 39.3732 38.7643 39.4248 38.9554 39.4248C39.0419 39.4248 39.1198 39.382 39.2033 39.3616C39.2198 42.1841 39.2169 42.1604 39.2296 44.8092C37.2653 44.4138 35.2336 44.4294 33.2759 44.773C33.287 44.7151 33.3138 44.6618 33.3151 44.602ZM35.3826 28.6854C35.7118 28.6533 36.1959 28.9128 36.6591 29.3718C38.5885 31.2867 39.0463 34.5202 39.1587 37.221C38.8681 36.9516 35.7485 35.7803 34.4496 31.4081C34.6982 30.5442 35.4028 28.7797 35.3826 28.6854ZM31.6466 47.3866C34.0394 46.5139 37.5404 46.3159 40.5891 47.3935L40.9294 66.4433C36.2755 66.9808 34.3053 66.6562 31.651 66.3178C31.6946 66.2002 31.7253 66.0757 31.7247 65.9426C31.6469 46.13 31.6644 47.6092 31.6466 47.3866ZM19.3642 58.7496L26.732 73.3917L26.7864 88.0514C25.4288 88.6755 24.0565 89.2193 22.6175 89.6633L9.5023 63.7775C12.5701 61.8592 15.8737 59.9396 19.3642 58.7496Z" fill="#3D898D"/>
<path d="M36.4165 62.2107C36.4305 62.2107 36.4444 62.2107 36.4584 62.2093C37.0499 62.187 37.5103 61.6904 37.4879 61.0988C37.4056 58.8974 37.4628 56.6722 37.6581 54.4875C37.7112 53.8974 37.2759 53.377 36.6872 53.324C36.0803 53.2682 35.5767 53.7063 35.5237 54.295C35.32 56.5718 35.26 58.8876 35.3479 61.1798C35.3688 61.7573 35.8445 62.2107 36.4165 62.2107Z" fill="#3D898D"/>
</svg>
