<svg width="100" height="100" viewBox="0 0 100 100" fill="none" xmlns="http://www.w3.org/2000/svg">
<path d="M60.7748 80.3621C73.1164 72.7734 70.2834 53.881 55.9763 50.4231C46.8449 48.3851 38.2807 53.9708 36.227 62.59C32.8576 76.7443 48.3797 87.983 60.7748 80.3621ZM65.2044 60.4309C58.6641 60.2843 51.7781 59.985 45.6481 59.2777C46.8489 56.6143 48.2852 54.304 50.0016 52.2297C56.3545 51.1912 62.547 54.6021 65.2044 60.4309ZM38.2256 63.0662C39.3092 58.5181 42.527 54.889 46.7375 53.1647C45.47 55.013 44.3662 57.0104 43.4355 59.2155C43.0016 60.0684 43.6248 61.1137 44.495 61.2027C44.5262 61.2071 44.5609 61.2107 44.5925 61.215L45.5905 63.3184C50.6035 63.7362 58.2736 63.9526 66.3252 64.078C67.2682 69.9428 64.6057 75.5945 59.6986 78.6116C48.8808 85.2641 35.2733 75.4691 38.2256 63.0662Z" fill="#3D898D"/>
<path d="M6.35943 90.5429C6.83187 91.6168 7.80854 92.3754 8.91121 92.7052C11.2086 93.3927 13.1096 92.245 15.1419 91.3486C17.7683 90.1902 30.7777 83.6757 33.3531 82.3835C33.7247 82.3382 34.1022 82.2282 34.4698 82.0636C34.5027 82.0952 34.5436 82.1269 34.57 82.1585C39.3243 87.8254 46.9802 90.9995 54.35 90.2094C65.9508 88.9875 76.3894 77.7691 73.9257 64.163C80.8732 64.2175 87.5891 64.2038 92.6567 64.1903L93.3639 62.3308C94.1247 62.2962 94.4985 61.6691 94.3868 61.1024C93.5674 56.9808 92.1841 51.7669 88.7294 47.9951C82.4573 41.1282 74.2021 38.8265 67.1982 40.0053C64.0397 40.5518 59.068 42.1906 56.0734 44.1517C55.6165 44.4531 55.1791 44.758 54.7467 45.0661C40.396 43.1906 28.1138 55.7052 30.6918 70.2234C28.324 70.2274 26.7756 72.3517 26.7063 74.8551C20.4548 78.1296 13.7025 81.7313 7.75162 84.8463C6.23371 85.6402 4.99462 88.3232 5.90217 89.9364C6.01689 90.1408 6.17875 90.3438 6.35943 90.5429ZM67.544 42.0314C73.8864 40.963 81.4344 43.0542 87.213 49.3817C90.0123 52.4378 91.3287 56.6805 92.1226 60.3111C78.5091 60.6392 73.4704 60.5323 72.9691 60.5355C72.3167 58.6598 71.4313 56.8698 70.3285 55.2242C67.3392 50.3534 62.9253 47.1224 57.5784 45.6456C60.368 43.9378 64.718 42.5202 67.544 42.0314ZM32.9269 61.9205C36.6952 46.0055 57.3707 41.5803 67.4303 54.6263C76.873 66.924 68.8973 85.6885 51.8026 85.9807C39.447 85.9807 29.9897 74.2665 32.9269 61.9205ZM31.1862 72.3505C31.8996 74.8516 33.0449 77.2363 34.6486 79.3713C34.3445 79.8696 33.4274 80.4282 32.9295 80.3594C32.1443 80.2564 31.1309 79.7581 30.5209 79.1748C29.7678 78.4551 29.2614 77.5187 28.8795 76.1381C28.3509 74.2271 29.2703 71.9065 31.1862 72.3505ZM8.7041 86.667C14.411 83.6798 20.7286 80.3111 27.0092 77.0173C27.4003 78.3001 27.9303 79.3161 28.6365 80.1426C22.3082 83.4669 15.9694 86.9934 9.99236 90.121C9.58234 90.3431 8.09141 89.6381 7.69343 88.9298C7.45728 88.513 8.0454 87.0114 8.7041 86.667Z" fill="#3D898D"/>
<path d="M60.0647 25.9093C60.3881 28.1939 61.0827 30.6802 62.5768 32.8276C64.9509 36.2401 69.1622 38.1667 72.9136 37.077C78.0156 35.5971 79.3683 31.5662 80.2713 26.3926C83.4946 25.9687 83.8324 21.4283 81.931 20.1587C83.4566 14.5548 80.7715 9.23286 76.2025 7.55068C73.3283 6.49318 69.6856 7.29116 67.4322 9.39612C63.7772 8.45439 59.7556 11.2492 59.2457 16.4595C59.1417 17.5253 59.1963 18.5689 59.3237 19.5442C57.932 19.9049 57.234 21.2318 57.3869 22.6473C57.5459 24.1232 58.8548 25.4394 60.0647 25.9093ZM64.2637 31.6544C62.8295 29.5927 62.07 26.8875 61.8894 23.2263C65.9532 23.4215 71.8774 20.7189 74.7477 17.0809C75.3633 19.5289 76.4191 21.8329 78.4622 23.2702C78.4685 23.3008 78.4856 23.3279 78.4946 23.3578C78.3326 25.7133 78.076 28.1756 77.1309 30.3909C76.1175 32.7654 74.327 34.5272 72.3404 35.1038C69.2435 36.0054 65.9305 34.0496 64.2637 31.6544ZM61.2912 16.6601C61.7032 12.4449 64.9269 10.5182 67.3218 11.5211C67.7265 11.6897 68.196 11.5827 68.4883 11.2543C70.0889 9.44361 73.2313 8.65032 75.4935 9.47906C79.8564 11.0856 81.591 16.7142 79.2955 21.3289C77.3689 19.7219 76.6723 16.8579 76.2286 13.9492C76.0634 12.8601 74.5332 12.7779 74.2273 13.8141C73.072 17.7447 65.7656 21.5311 61.72 21.1539C61.3082 19.3745 61.1643 17.9526 61.2912 16.6601Z" fill="#3D898D"/>
<path d="M39.7392 42.4515C40.6686 42.4515 41.1176 41.3066 40.4416 40.6743L36.9219 37.3814C36.5085 36.9948 35.8571 37.0155 35.4698 37.4302C35.0825 37.8449 35.1039 38.4951 35.5186 38.8823C39.0574 42.0645 39.0246 42.4515 39.7392 42.4515Z" fill="#3D898D"/>
<path d="M44.3281 39.0736C44.4465 39.5384 44.8639 39.8475 45.3228 39.8475C45.9932 39.8475 46.4845 39.2155 46.3187 38.5666L44.0599 29.7086C43.9201 29.1595 43.3609 28.827 42.8105 28.9675C42.2606 29.1073 41.9289 29.6671 42.0693 30.217L44.3281 39.0736Z" fill="#3D898D"/>
<path d="M50.7352 38.2676C51.1225 38.2676 51.4937 38.0476 51.6676 37.673C52.4722 35.9413 53.1405 34.1319 53.6548 32.2952C53.808 31.7487 53.4889 31.1822 52.9425 31.029C52.3973 30.8745 51.8295 31.1942 51.6763 31.7414C51.192 33.4711 50.5619 35.1754 49.8041 36.8075C49.4874 37.4896 49.989 38.2676 50.7352 38.2676Z" fill="#3D898D"/>
</svg>
