<svg width="100" height="100" viewBox="0 0 100 100" fill="none" xmlns="http://www.w3.org/2000/svg">
<path d="M51.8098 9.70212L51.9061 9.60948C30.6045 9.40419 9.04578 26.6079 9.41383 51.8935C9.76985 76.3528 29.4744 93.601 52.468 92.5441C55.4869 92.4053 58.4878 91.9275 61.4006 91.0899C65.0205 93.9328 71.025 95.8259 74.9532 94.2326C76.5573 93.5681 77.9862 92.5016 79.1816 91.1379C83.6093 87.0934 84.2825 80.1897 83.2374 74.179C89.8315 64.8176 91.6953 54.0501 89.9998 44.029C86.8814 25.5976 71.7226 9.69117 51.8098 9.70212ZM72.4575 18.7848C72.3865 18.9435 72.3404 19.1142 72.3593 19.2995C72.6979 22.647 69.0842 24.9939 66.1641 23.3503C64.0069 22.1341 62.8226 18.9857 59.9315 17.9297C54.6374 15.9923 50.7199 22.1597 46.4309 21.7155C44.7962 21.5416 43.1855 20.2614 42.3253 18.4541C41.6829 17.1021 41.3962 15.4304 41.4003 13.298C52.4557 10.0152 63.3237 12.0223 72.4575 18.7848ZM15.023 39.9919C22.2241 37.8261 31.9359 42.3629 24.8984 46.0172C23.2615 46.8427 21.5789 47.6031 20.6456 49.1609C19.4604 51.1408 20.0757 53.9234 21.9901 55.237C22.7249 55.7377 23.6844 56.0948 23.7907 56.4999C24.0376 57.4426 19.2827 60.5876 14.0443 59.0369C13.5002 56.5393 13.1901 53.968 13.1288 51.3508C13.0365 47.4295 13.5157 43.6372 14.5491 40.01C14.703 40.0376 14.8622 40.0408 15.023 39.9919ZM34.6038 76.09C37.0366 71.6101 42.1627 70.3541 42.8283 71.1483C43.2511 71.6531 42.573 73.0517 42.3695 74.2252C41.8087 77.4048 44.9027 80.5364 48.0964 80.0203C51.7533 79.4214 53.4723 75.1443 56.2728 74.7843C57.5998 74.6198 59.1423 75.4251 60.4118 76.9542C62.2573 79.1753 63.4363 83.7871 63.141 87.1932C59.2921 88.5811 55.4925 89.2631 51.6588 89.3485C45.4709 89.4744 39.4918 88.0846 34.1107 85.3329C33.3349 82.6025 33.3288 78.4367 34.6038 76.09ZM60.7703 57.8684C60.7059 56.2143 60.505 54.6028 60.2579 52.4505C60.2233 52.1338 60.037 51.8759 59.7884 51.7127C58.4428 50.4384 56.0929 47.9085 52.1378 45.0313C51.6215 44.6589 50.9038 44.8349 50.6181 45.3951C47.913 50.6973 46.2142 55.7313 45.144 61.571C44.2466 61.1196 44.191 61.0917 44.0189 60.9961C45.0905 53.5836 45.2818 46.5684 45.3834 40.0067C45.3888 39.6829 45.2403 39.3766 44.9848 39.1786C41.5762 36.5392 38.4632 34.3279 35.48 32.4256C34.9208 30.6998 34.5304 30.4279 34.7697 30.0604C34.9558 29.7722 35.0673 29.9474 36.8887 29.7514C40.7401 32.3172 44.3707 34.5593 47.6844 36.4201C47.9626 36.5767 48.2997 36.5954 48.5954 36.467C54.4454 33.9399 61.1208 31.8249 67.9393 30.3347C68.0218 30.465 68.1598 30.6908 68.2407 30.8281C63.4146 33.1844 58.4884 36.6721 53.9277 40.9966C53.5113 41.3906 53.498 42.0474 53.8982 42.4588C56.6179 45.2547 59.0754 47.557 61.2011 49.3027C62.121 50.053 63.0577 48.7557 68.1775 47.7362C68.3924 47.9887 68.6186 48.287 68.8426 48.6054C64.281 51.5091 62.716 52.728 61.1846 58.0448C61.1808 58.0431 60.8537 57.903 60.7703 57.8684ZM66.5919 52.6592C75.6295 62.4238 86.5076 80.8822 77.1569 90.2799C83.6056 80.3187 74.4778 65.1554 64.3356 55.4894C64.8791 54.3772 65.644 53.4183 66.5919 52.6592ZM77.0561 81.1561C77.3058 83.8708 76.9475 85.8698 76.3094 87.4716C73.6044 91.4089 68.6323 91.7945 65.3366 89.7244C69.2707 88.0726 72.9113 85.6563 75.5869 82.443C76.0898 82.0323 76.5711 81.5923 77.0561 81.1561ZM69.6373 50.538C70.0292 50.2825 70.3993 50.0494 70.7169 49.8683C70.7542 49.8516 70.7957 49.8579 70.8316 49.8365C71.3172 49.5422 71.4737 48.9108 71.1807 48.4252C70.8945 47.9516 70.1359 46.7556 69.2758 45.8955C69.0403 45.6587 68.7032 45.5503 68.3714 45.6105C66.0678 46.0145 64.0277 46.6807 62.0653 47.3496C60.2967 45.8647 58.2968 43.9932 56.1042 41.7738C60.6071 37.6362 65.431 34.3386 70.1078 32.2049C70.5869 31.9865 70.8003 31.447 70.643 30.9577C70.6183 30.7885 70.5666 30.6226 70.4543 30.4778C69.7879 29.6159 69.2588 27.9596 68.1133 28.1956C61.1382 29.6792 54.2822 31.8142 48.2502 34.3801C38.6136 28.9172 38.0078 27.5491 37.0144 27.6672C35.131 27.9069 33.9449 27.5727 33.052 28.9314C32.6119 29.6016 32.5196 30.4497 32.8072 31.1989C34.7092 35.7978 31.6186 31.4859 43.3206 40.4896C43.2109 47.2774 43.0009 53.9996 41.8892 61.3506C41.6948 62.6419 43.8825 62.9913 45.1038 63.9164C45.6426 64.3224 46.4708 64.1229 46.6951 63.399C47.5868 62.5243 47.0936 57.3028 51.9037 47.4205C53.995 49.0175 55.9986 50.8094 58.2638 53.0939C58.3398 53.9192 58.4519 54.2502 58.6853 57.9171C58.7845 59.4758 58.8722 59.2888 60.2847 59.8951C61.3359 60.3502 61.402 60.3968 61.76 60.3463C62.3386 60.4347 62.8227 60.0513 62.9268 59.5379C63.0559 58.898 63.267 58.2199 63.5 57.5547C69.6761 63.5553 74.9376 70.0703 76.6959 78.7083C73.3187 81.9674 69.4226 84.5362 65.229 86.3412C65.2719 82.5701 63.9767 78.0294 61.993 75.6405C60.2459 73.5375 58.0613 72.4874 56.0106 72.7456C52.3005 73.223 50.5816 77.5325 47.7646 77.9923C45.9772 78.2883 44.0779 76.3723 44.3921 74.581C44.627 73.2647 45.6852 71.3564 44.4028 69.8293C43.6269 68.8982 42.2905 68.6146 40.6371 69.0293C37.3475 69.856 34.4165 72.1275 32.7978 75.1081C31.5286 77.4461 31.2996 81.0464 31.7309 83.998C23.5679 79.0309 17.3347 70.9986 14.6164 61.3049C18.0127 61.9646 21.4246 61.1784 24.0288 59.3921C25.4508 58.4142 26.089 57.1714 25.7786 55.9795C25.4009 54.5408 23.9582 54.0895 23.1512 53.5421C22.1372 52.8465 21.7827 51.2599 22.4088 50.2164C23.0244 49.1858 24.3544 48.592 25.8468 47.8392C31.0487 45.1379 30.2076 40.666 25.4522 38.6381C22.281 37.2833 18.6117 37.0084 15.2486 37.8181C19.1808 26.7186 28.2805 17.9356 39.333 13.9712C39.4974 20.3078 42.8893 23.4043 46.2115 23.7596C51.0702 24.2656 55.3507 18.4428 59.2265 19.8587C61.4357 20.6677 62.5852 23.6916 65.1555 25.1402C68.8626 27.2301 73.8819 25.0308 74.3842 20.3095C81.4558 26.2905 86.216 34.7185 87.8831 43.7855C89.5712 52.9659 88.0883 62.8014 82.6233 71.4152C80.4614 63.5089 74.8801 56.6791 69.6373 50.538Z" fill="#3D898D"/>
<path d="M80.7215 38.5459C79.9861 38.0345 79.959 38.0114 80.0299 37.0222C80.0634 36.558 80.1008 36.0309 79.959 35.4784C79.225 32.614 75.0752 32.4472 73.9083 35.4597C73.086 37.5837 69.391 38.6081 71.1151 43.0474C72.6012 46.8776 78.2321 48.3852 81.2379 45.537C82.1636 44.6607 82.7014 43.3404 82.6747 42.0066C82.6397 40.3506 81.887 39.3516 80.7215 38.5459ZM73.0308 42.3036C71.8184 39.1825 74.6819 39.1466 75.824 36.2021C76.0298 35.6717 76.5541 35.3125 77.0119 35.3125C77.4333 35.3125 77.8734 35.6202 77.9684 35.9881C78.1354 36.6409 77.6704 37.809 78.2601 38.9378C79.0394 40.4325 80.5832 40.1701 80.6199 42.0481C80.6945 45.8681 74.4042 45.8513 73.0308 42.3036Z" fill="#3D898D"/>
<path d="M72.4944 11.7278L73.2448 6.3567C73.3224 5.79484 72.9305 5.27579 72.3686 5.19686C71.8041 5.1166 71.2877 5.51257 71.2088 6.07309L70.4583 11.4442C70.2724 12.7903 72.3049 13.0747 72.4944 11.7278Z" fill="#3D898D"/>
<path d="M78.8541 8.41953L75.5044 13.2261C74.7189 14.351 76.4297 15.4926 77.1899 14.4006L80.5397 9.59408C80.8647 9.12854 80.7497 8.48776 80.2842 8.16402C79.8159 7.84028 79.1778 7.95533 78.8541 8.41953Z" fill="#3D898D"/>
<path d="M81.0733 19.4934L87.0022 15.0467C87.4557 14.7069 87.548 14.0621 87.2069 13.6086C86.8671 13.1565 86.225 13.0628 85.7688 13.404L79.8399 17.8507C78.7455 18.6706 80.0013 20.3013 81.0733 19.4934Z" fill="#3D898D"/>
</svg>
