<svg width="100" height="100" viewBox="0 0 100 100" fill="none" xmlns="http://www.w3.org/2000/svg">
<path d="M29.4611 28.4906L35.0317 30.586C35.5779 30.7916 36.2005 30.5204 36.4114 29.9603C36.6193 29.4065 36.3389 28.7885 35.7851 28.5799L30.2145 26.4845C29.6606 26.2766 29.044 26.5563 28.8347 27.1102C28.6268 27.664 28.9073 28.282 29.4611 28.4906Z" fill="#3D898D"/>
<path d="M39.5407 24.6109C39.8415 25.1284 40.501 25.2955 41.0056 25.0015C41.5176 24.7051 41.692 24.0501 41.3962 23.5381L38.5209 18.5695C38.2224 18.0575 37.5681 17.8796 37.0561 18.1788C36.5441 18.4753 36.3697 19.1303 36.6655 19.6423L39.5407 24.6109Z" fill="#3D898D"/>
<path d="M45.7291 22.3683C46.2904 22.4151 46.8297 21.9822 46.8703 21.3722L47.194 16.6296C47.2344 16.0395 46.788 15.5282 46.1979 15.4884C45.6063 15.4466 45.0957 15.8937 45.0567 16.4845L44.733 21.2271C44.6926 21.8173 45.139 22.3286 45.7291 22.3683Z" fill="#3D898D"/>
<path d="M4.76951 54.5551C10.0122 55.7594 15.2418 53.879 20.4182 52.2232C30.6412 49.0096 33.9338 51.1196 37.3462 53.7767C40.1179 55.9391 41.3901 56.7969 46.4492 57.8036C57.58 59.9605 61.259 59.479 63.9813 60.6349C65.1169 61.1232 66.4269 62.143 66.6975 63.5444C67.0337 65.2513 65.6931 66.9435 64.2701 67.6655C60.8611 69.3553 55.0919 67.7538 51.1897 66.7594C42.4954 64.5444 39.8418 64.3673 29.2854 66.5083L29.7109 68.6079C40.0265 66.5183 42.3637 66.7236 50.661 68.836C53.6092 69.5877 57.4178 70.5624 60.5536 70.5624C65.1876 70.5624 67.8354 68.3428 68.6595 65.5395L76.7101 62.2654C76.5741 62.7571 76.4952 63.2647 76.5427 63.7753C76.5986 64.3767 77.1397 64.8014 77.709 64.7421C78.2991 64.6877 78.7316 64.1652 78.6772 63.5758C78.6144 62.9075 78.9046 62.1939 79.4165 61.7587C79.646 61.5634 79.7699 61.2921 79.7883 61.0134C82.0614 60.0877 83.9744 59.1471 85.5954 59.3773C86.562 59.5169 87.6633 60.3994 87.5164 61.3255C87.4621 61.6529 87.4611 61.9465 87.4104 62.2436C78.4893 68.1257 57.5549 81.5976 46.851 81.1441C43.3388 80.9824 39.8393 79.5583 36.4855 78.4363C26.4604 75.0811 15.5801 73.6832 5.04016 74.3898C3.82916 74.4712 3.65247 76.2199 4.89106 76.489C7.17081 78.222 17.7677 75.5982 32.3543 80.6042C34.7584 81.4293 37.1059 82.4165 39.5599 83.1103C53.4093 87.0266 59.9176 82.0278 69.0238 76.9699C72.672 74.9435 76.4319 73.1204 80.0182 70.9821C86.6679 67.0172 86.9003 65.7176 89.4104 63.495C90.8216 62.5616 92.2252 61.6267 93.6227 60.6956C94.4249 60.1606 96.0948 59.0473 96.0614 57.2142C96.0223 55.2087 93.9799 54.0606 91.9738 53.8129C87.6113 53.2626 78.9715 58.7725 78.6074 59.0069C78.4824 59.0873 78.38 59.1894 78.3014 59.305L68.8043 63.1675C68.6904 62.947 68.384 59.872 64.1944 58.4324C67.1726 56.3402 69.3496 53.4256 70.4071 49.9911C73.9957 38.3347 64.038 25.1534 50.9707 26.11C39.3024 26.9513 31.1112 38.5898 35.6968 50.0395C25.7058 44.6127 14.8419 54.674 5.24942 52.4667C4.67465 52.3342 4.09708 52.6948 3.96594 53.271C3.83341 53.8478 4.19334 54.4226 4.76951 54.5551ZM91.7115 55.9391C92.7717 56.0702 93.906 56.5759 93.9185 57.2553C93.933 58.0157 92.9879 58.5462 89.6331 60.7745C89.4207 59.0084 87.9237 57.7274 86.2537 57.3451C88.3948 56.4179 90.4425 55.7825 91.7115 55.9391ZM38.2935 36.5041C40.7935 31.8703 45.8298 28.6288 51.1241 28.2472C62.7388 27.3891 71.4879 39.2002 68.3591 49.3605C67.2458 52.9759 64.7081 55.9516 61.1981 57.7715C60.8596 57.7292 50.4362 56.7118 44.5062 55.1684C42.4033 54.6204 41.3164 54.0944 39.6277 52.8234C36.1773 48.072 35.428 41.8166 38.2935 36.5041Z" fill="#3D898D"/>
<path d="M64.6189 64.825C64.8421 62.9835 63.1917 61.6066 61.5246 61.2466C60.2681 60.974 59.0206 61.0057 57.8987 60.842C57.4621 60.78 57.0282 60.9906 56.8092 61.3778C54.6307 65.259 56.4194 68.0951 59.5198 68.0951C61.6059 68.0951 64.358 67.0083 64.6189 64.825ZM58.3675 63.0526C59.3753 63.1425 60.2487 63.1633 61.0725 63.3406C61.7938 63.4969 62.5541 64.0542 62.4914 64.5683C62.3386 65.844 56.4285 67.547 58.3675 63.0526Z" fill="#3D898D"/>
<path d="M16.0544 66.2C17.5946 64.4687 19.8951 63.3666 22.2096 63.2508C23.6318 63.1803 23.5064 61.0374 22.1035 61.1107C19.1836 61.2565 16.3948 62.5923 14.4529 64.7756C13.5054 65.8407 15.1268 67.2405 16.0544 66.2Z" fill="#3D898D"/>
<path d="M51.7055 43.1342C51.7067 43.8899 51.6999 44.6475 51.7046 45.4013C51.7115 46.4659 51.7375 47.5306 51.7515 48.5954C50.7404 48.3835 49.3268 47.8652 48.9507 46.8989C48.7344 46.3472 48.1136 46.0744 47.5626 46.29C45.8749 46.9479 47.4598 50.1295 51.7837 50.7806C51.798 51.5819 51.8005 52.3833 51.819 53.1845C51.8329 53.7676 52.31 54.2308 52.8904 54.2308H52.9155C53.507 54.2169 53.9758 53.7258 53.9618 53.1343C53.9438 52.3585 53.9415 51.5822 53.9275 50.8063C57.7997 50.3162 59.7934 47.2141 59.2674 45.0386C58.9646 43.783 57.6853 42.4214 56.4186 42.0035C55.5639 41.7217 54.7025 41.5378 53.8492 41.3711C53.8525 39.8615 53.8623 38.3604 53.8796 36.855C55.1968 37.1982 56.3738 38.1112 56.9934 39.3473C57.2584 39.8746 57.903 40.0923 58.4317 39.8244C58.9604 39.5593 59.1753 38.9155 58.9102 38.3861C57.2632 35.1063 54.0527 34.7056 53.9098 34.6414C53.9204 33.9828 53.9235 33.3174 53.9367 32.662C53.9479 32.0705 53.4791 31.5815 52.8876 31.569C52.8792 31.569 52.8723 31.569 52.8653 31.569C52.2835 31.569 51.8064 32.0342 51.7939 32.6188C51.7804 33.2831 51.7773 33.9576 51.7667 34.6253C47.9884 35.1817 45.7045 38.3728 46.8525 40.6622C47.6901 42.3452 49.7528 42.7527 51.7055 43.1342ZM55.7475 44.039C56.314 44.2259 57.0534 44.9988 57.1845 45.5408C57.3198 46.103 56.9613 46.7671 56.5818 47.2009C55.9256 47.9483 54.9493 48.4734 53.8957 48.6566C53.8811 47.5668 53.8545 46.4774 53.8474 45.3873C53.8436 44.7779 53.8497 44.165 53.8482 43.5541C54.4967 43.6884 55.1326 43.8361 55.7475 44.039ZM49.4501 37.9941C50.0827 37.3934 50.8896 37.009 51.7368 36.8231C51.7211 38.1997 51.7107 39.5716 51.7065 40.9523C51.6789 40.9467 51.6512 40.9421 51.6237 40.9363C50.427 40.6891 49.1277 40.4254 48.7693 39.7044C48.4883 39.1483 48.9933 38.4299 49.4501 37.9941Z" fill="#3D898D"/>
</svg>
