<svg width="100" height="100" viewBox="0 0 100 100" fill="none" xmlns="http://www.w3.org/2000/svg">
<path d="M46.4706 87.6471L45.2941 87.2059C44.7059 87.0589 44.1176 87.353 43.9706 87.9412C43.8235 88.5295 44.1176 89.1177 44.7059 89.2648L45.8823 89.7059H46.1765C46.6176 89.7059 47.0588 89.4118 47.2059 88.9706C47.3529 88.5295 47.0588 87.7942 46.4706 87.6471Z" fill="#3D898D"/>
<path d="M30.4414 21.7647C28.9708 21.7647 27.3531 21.9117 25.7355 22.0588C22.7943 22.2058 17.2061 22.7941 14.2649 23.5294C13.8237 23.6764 13.3825 23.6764 13.0884 23.8235C11.912 24.1176 10.8825 24.4117 9.70608 24.8529C8.08843 25.4411 7.20608 25.8823 6.91196 27.5C6.7649 27.647 6.61784 27.9411 6.61784 28.2353C6.47079 42.647 6.7649 58.8235 7.20608 74.7058C7.20608 75.4411 7.35314 76.0294 7.79431 76.6176C8.23549 77.7941 8.97079 78.8235 10.0002 79.8529C11.6178 81.1764 14.7061 83.0882 16.6178 83.9705C25.8825 88.0882 34.7061 92.0588 43.9708 96.1764C45.4414 96.7647 46.912 97.5 48.5296 97.647C50.1473 97.7941 51.912 97.3529 52.9414 96.1764C53.5296 95.4411 53.8237 94.4117 54.1178 93.3823C54.559 92.0588 54.559 90.5882 54.559 89.4117V76.9117C56.1767 77.0588 58.3825 76.6176 60.1473 76.6176C64.7061 76.6176 69.2649 76.1764 73.6767 75.4411C76.6178 75 79.7061 74.1176 81.4708 71.6176C82.7943 69.7058 82.7943 67.3529 82.7943 65C82.7943 63.6764 82.7943 62.3529 82.7943 61.0294C83.2355 60.5882 83.5296 60.147 84.1178 60C85.8825 59.2647 87.5002 59.7058 88.9708 58.8235C89.559 58.8235 90.1473 58.6764 90.7355 58.3823C92.7943 57.3529 93.0884 54.7058 93.2355 53.3823C93.3826 51.9117 93.5296 50.4411 93.3825 48.9705C93.0884 47.0588 92.2061 45.5882 90.8825 44.7058C89.559 43.8235 87.9414 43.6764 86.4708 43.5294C85.1473 43.5294 83.8237 43.3823 82.5002 43.3823C82.3531 41.0294 82.059 38.6764 81.7649 36.3235C81.4708 34.1176 81.0296 31.9117 80.2943 30C79.8531 27.5 78.9708 25 77.059 23.3823C76.6178 22.9411 75.8825 22.647 75.1473 22.3529C76.0296 18.5294 77.2061 14.8529 78.6767 11.4706C78.8237 11.1764 78.8237 10.7353 78.5296 10.4411C78.3826 10.147 78.0884 9.99996 77.6473 9.8529C72.5002 9.41173 67.3531 9.11761 62.2061 8.97055C62.6473 7.3529 63.2355 5.5882 63.8237 3.97055C63.9708 3.67643 63.9708 3.23526 63.6767 2.94114C63.5296 2.64702 63.0884 2.49996 62.7943 2.49996C52.5002 2.20585 42.2061 2.35291 31.912 3.23526C31.6178 3.23526 31.3237 3.38232 31.1767 3.67643C31.0296 3.97055 30.7355 4.11761 30.8825 4.41173C31.6178 10.147 31.6178 16.0294 30.4414 21.7647ZM10.4414 26.9117C11.4708 26.4705 12.5002 26.3235 13.5296 26.0294C13.9708 25.8823 14.412 25.8823 14.7061 25.7353C17.5002 25 22.9414 24.4117 25.7355 24.2647C27.2061 24.1176 28.6767 24.1176 29.8531 23.9705C29.412 25.8823 28.8237 27.7941 28.2355 29.5588V29.7058C25.4414 29.7058 22.6473 29.8529 19.8531 29.8529C16.3237 29.1176 12.7943 28.2353 9.2649 27.3529C9.55902 27.2058 9.85314 27.0588 10.4414 26.9117ZM49.2649 29.2647C45.8825 29.2647 42.3531 29.4117 38.9708 29.4117C39.1178 26.4705 39.8531 24.2647 41.3237 22.7941C42.6473 21.3235 45.4414 20.2941 47.2061 21.4706C48.2355 22.2058 49.1178 23.3823 49.2649 25C49.412 26.4705 49.412 27.9411 49.2649 29.2647ZM49.412 31.4705C58.8237 31.3235 68.6767 31.0294 78.0884 31.0294V31.3235C79.412 40.147 79.7061 49.1176 79.7061 58.0882V63.6764C79.7061 65.7352 79.7061 67.9411 78.5296 69.5588C77.2061 71.4705 74.412 72.2058 71.912 72.5C66.0296 73.3823 60.2943 73.5294 54.412 72.7941V70C54.412 70.5882 54.8531 71.0294 55.4414 71.0294L57.5002 71.1764H57.6473C58.2355 71.1764 58.6767 70.7353 58.6767 70.147C58.6767 69.5588 58.2355 68.9706 57.6473 68.9706L55.5884 68.8235C55.0002 68.8235 54.559 69.1176 54.412 69.7058V52.9411C54.412 49.2647 54.412 44.1176 51.4708 40.2941C48.8237 36.7647 44.412 35.4411 39.7061 34.2647C36.1767 33.3823 32.6473 32.647 29.1178 31.7647C35.8825 31.7647 42.6473 31.6176 49.412 31.4705ZM63.2355 26.1764C64.1178 25.5882 65.4414 25.5882 66.4708 26.1764C67.3531 26.7647 67.7943 27.9411 67.6473 28.9706C65.7355 28.9706 63.9708 28.9705 62.059 29.1176C61.912 27.9411 62.3531 26.7647 63.2355 26.1764ZM23.3825 32.9411C28.5296 34.1176 33.9708 35.2941 39.1178 36.6176C43.3825 37.647 47.3531 38.8235 49.559 41.7647C51.7649 44.7058 52.059 48.5294 52.059 52.9411L52.2061 89.4117C52.2061 90.5882 52.2061 91.7647 51.912 92.647C51.6178 93.6764 51.0296 94.4117 50.2943 94.5588C49.2649 95 47.9414 94.4117 46.6178 93.8235C40.2943 90.7352 33.9708 87.7941 27.6473 84.7058C21.912 82.0588 16.3237 79.2647 10.5884 76.6176C9.85314 76.3235 9.41196 75.5882 9.2649 74.7058C8.97079 59.2647 8.67667 43.6764 8.82373 29.5588C13.6767 30.7353 18.6767 31.7647 23.3825 32.9411ZM86.1767 45.8823C87.5002 46.0294 88.6767 46.0294 89.559 46.6176C90.2943 47.2058 90.8825 48.2353 91.1767 49.4117C91.3237 50.5882 91.1767 51.9117 91.0296 53.3823C90.8826 54.7058 90.5884 56.0294 89.7061 56.6176C89.2649 56.9117 88.6767 56.9117 87.9414 56.9117L82.7943 57.0588C82.7943 53.3823 82.6473 49.5588 82.5002 45.8823C83.6767 45.7353 84.8531 45.7353 86.1767 45.8823ZM77.5002 28.8235C76.1767 28.8235 74.8531 28.8235 73.6767 28.8235C73.9708 27.3529 74.1178 25.8823 74.559 24.4117C75.0002 24.5588 75.2943 24.8529 75.4414 25C76.4708 25.8823 77.2061 27.3529 77.5002 28.8235ZM75.8825 11.9117C74.559 15.2941 73.5296 18.9706 72.6473 22.647C72.2061 24.7058 71.7649 26.7647 71.4708 28.8235C71.0296 28.8235 70.4414 28.8235 70.0002 28.8235C70.1473 27.0588 69.2649 25.147 67.7943 24.2647C66.1767 23.0882 63.8237 23.2353 62.059 24.4117C60.5884 25.4411 59.7061 27.3529 60.0002 29.1176C59.7061 29.1176 59.412 29.1176 59.1178 29.1176C59.1178 24.2647 59.7061 19.5588 60.5884 15L69.1178 15.4411C69.1178 15.8823 69.2649 16.1764 69.2649 16.4706C69.559 17.3529 70.2943 17.9411 71.1767 18.2353H71.3237C71.912 18.2353 72.3531 17.7941 72.3531 17.3529C72.5002 16.7647 72.059 16.1764 71.4708 16.0294C71.3237 16.0294 71.3237 15.8823 71.3237 15.8823C71.1767 15.4411 71.1767 15.147 71.1767 15.147C71.3237 14.8529 71.4708 14.4117 71.3237 14.1176C71.1767 13.5294 70.8826 13.2353 70.4414 13.2353L61.0296 12.7941C61.1767 12.2058 61.3237 11.7647 61.4708 11.1764C66.1767 11.1764 71.0296 11.4706 75.8825 11.9117ZM61.1767 4.70585C58.3825 12.5 56.912 20.7353 56.7649 29.1176C55.0002 29.1176 53.2355 29.1176 51.4708 29.2647C51.6178 27.7941 51.7649 26.3235 51.4708 24.7058C51.0296 22.5 50.0002 20.5882 48.3825 19.5588C45.4414 17.7941 41.6178 18.9706 39.7061 21.3235C37.9414 23.2353 37.059 26.0294 36.7649 29.5588C34.7061 29.5588 32.7943 29.5588 30.7355 29.7058C31.4708 27.647 32.059 25.4411 32.5002 23.2353C32.5002 23.2353 32.5002 23.2353 32.5002 23.0882C33.6767 17.2058 33.9708 11.1764 33.2355 5.29408C42.5002 4.70585 51.912 4.41173 61.1767 4.70585Z" fill="#3D898D"/>
<path d="M83.3823 51.9118C83.6765 53.2353 85.147 53.9706 86.4706 53.6765C87.7941 53.3824 88.5294 51.9118 88.2353 50.5883C87.5 47.5 82.5 48.6765 83.3823 51.9118Z" fill="#3D898D"/>
<path d="M44.8531 69.2646C46.315 69.2646 47.5002 67.6845 47.5002 65.7352C47.5002 63.786 46.315 62.2058 44.8531 62.2058C43.3912 62.2058 42.2061 63.786 42.2061 65.7352C42.2061 67.6845 43.3912 69.2646 44.8531 69.2646Z" fill="#3D898D"/>
<path d="M35.1473 10.8823C36.1767 11.1764 37.3532 10.8823 38.0885 10.147C38.5296 9.70579 38.6767 9.26461 38.8238 8.67638H52.9414C52.9414 8.97049 52.9414 9.41167 53.0885 9.70579C53.2355 10.294 53.8237 10.7352 54.412 11.0293C54.7061 11.1764 55.1473 11.3234 55.4414 11.3234C55.7355 11.3234 56.0296 11.3234 56.3237 11.1764C56.912 11.0293 57.2061 10.294 56.912 9.70579C56.7649 9.11755 56.0296 8.82344 55.4414 9.11755H55.2943L55.1473 8.97049V8.82344L55.2943 8.67638C55.7355 8.52932 56.0296 7.94108 56.0296 7.49991C55.8826 6.91167 55.4414 6.61755 55.0002 6.61755H37.7943C37.5002 6.61755 37.059 6.76461 36.912 7.05873C36.7649 7.35285 36.6179 7.79402 36.7649 8.08814C36.912 8.2352 36.7649 8.52932 36.6179 8.67638C36.4708 8.82344 36.0296 8.97049 35.7355 8.82344C35.1473 8.67638 34.559 8.97049 34.412 9.55873C34.2649 10.147 34.559 10.7352 35.1473 10.8823Z" fill="#3D898D"/>
<path d="M12.7944 75.5883L16.4709 77.2059C16.618 77.2059 16.765 77.353 16.9121 77.353C17.3533 77.353 17.7944 77.0589 17.9415 76.7647C18.2356 76.1765 17.9415 75.5883 17.3533 75.2942L13.6768 73.5294C13.0886 73.2353 12.5003 73.5294 12.2062 74.1177C11.9121 74.7059 12.2062 75.2942 12.7944 75.5883Z" fill="#3D898D"/>
<path d="M28.6769 82.3529H28.824C29.2651 82.3529 29.8534 82.0588 29.8534 81.4705C30.0004 80.8823 29.5593 80.2941 28.971 80.147C27.0593 79.7058 25.2946 78.8235 23.824 77.647C23.3828 77.2058 22.6475 77.3529 22.2063 77.7941C21.7651 78.2352 21.9122 78.9705 22.3534 79.4117C24.1181 80.8823 26.324 81.9117 28.6769 82.3529Z" fill="#3D898D"/>
<path d="M35.0001 84.2647C34.706 84.8529 35.0002 85.4411 35.5884 85.7352L39.1178 87.2058C39.2649 87.2058 39.4119 87.3529 39.559 87.3529C40.0001 87.3529 40.4413 87.0588 40.5884 86.6176C40.8825 86.0294 40.5884 85.4411 40.0002 85.147L36.4707 83.6764C35.8825 83.3823 35.1472 83.6764 35.0001 84.2647Z" fill="#3D898D"/>
<path d="M12.7943 35.2941L16.6178 36.4705H16.9119C17.3531 36.4705 17.7943 36.1764 17.9413 35.7352C18.0884 35.147 17.7943 34.5588 17.206 34.4117L13.3825 33.2352C12.7943 33.0882 12.206 33.3823 12.059 33.9705C11.9119 34.5588 12.206 35.147 12.7943 35.2941Z" fill="#3D898D"/>
<path d="M23.5296 38.0882L27.6473 39.1176H27.9414C28.3825 39.1176 28.8237 38.8235 28.9708 38.2353C29.1178 37.647 28.8237 37.0588 28.2355 36.9117L24.1178 35.8823C23.5296 35.7353 22.9414 36.0294 22.7943 36.6176C22.6473 37.2059 22.9414 37.9411 23.5296 38.0882Z" fill="#3D898D"/>
<path d="M34.7059 41.1764L38.2353 42.2058H38.5294C38.9706 42.2058 39.4118 41.9117 39.5588 41.4705C39.7059 40.8823 39.4118 40.294 38.8235 40.147L35.2941 39.1176C34.7059 38.9705 34.1176 39.2646 33.9706 39.8528C33.8235 40.4411 34.1176 41.0293 34.7059 41.1764Z" fill="#3D898D"/>
<path d="M43.6768 43.6764L46.0297 44.7059C46.1768 44.7059 46.3238 44.8529 46.4709 44.8529C46.9121 44.8529 47.3532 44.5588 47.5003 44.2647C47.7944 43.6764 47.5003 43.0882 46.9121 42.7941L44.5591 41.7647C43.9709 41.4706 43.3826 41.7647 43.0885 42.3529C42.7944 42.7941 43.0885 43.5294 43.6768 43.6764Z" fill="#3D898D"/>
<path d="M47.2062 35.5882L50.1473 36.0294H50.2944C50.8826 36.0294 51.3238 35.5882 51.3238 34.9999C51.4709 34.4117 51.0297 33.8235 50.2944 33.8235L47.3532 33.3823C46.765 33.2352 46.1768 33.6764 46.1768 34.4117C46.1768 34.8529 46.6179 35.4411 47.2062 35.5882Z" fill="#3D898D"/>
<path d="M57.2063 35.147H61.7651C62.3533 35.147 62.7945 34.7059 62.7945 33.9706C62.7945 33.3823 62.3533 32.9412 61.618 32.9412H57.0592C56.471 32.9412 56.0298 33.3823 56.0298 34.1176C56.0298 34.7059 56.618 35.147 57.2063 35.147Z" fill="#3D898D"/>
<path d="M67.0588 35.5882H70.7353C71.3235 35.5882 71.9117 35.147 71.9117 34.4117C71.9117 33.6764 71.4706 33.2352 70.7353 33.2352H67.0588C66.4706 33.2352 65.8823 33.6764 65.8823 34.4117C65.8823 35.147 66.4706 35.5882 67.0588 35.5882Z" fill="#3D898D"/>
<path d="M62.0591 70C62.0591 70.5883 62.6473 71.0295 63.0885 71.0295L66.1767 70.8824C66.765 70.8824 67.2061 70.2942 67.2061 69.7059C67.2061 69.1177 66.6179 68.6765 66.0297 68.6765L63.2356 68.8236C62.5003 68.8236 62.0591 69.4118 62.0591 70Z" fill="#3D898D"/>
<path d="M70.7354 69.1176C70.7354 69.7059 71.1765 70.2941 71.7648 70.2941H72.5001C73.3824 70.2941 74.2648 70.147 75.1471 69.8529C75.7354 69.7059 76.0295 68.9706 75.7354 68.3823C75.5883 67.7941 74.853 67.5 74.2648 67.7941C73.5295 68.0882 72.6471 68.2353 71.7648 68.0882C71.3236 68.0882 70.8824 68.5294 70.7354 69.1176Z" fill="#3D898D"/>
</svg>
